<svg width="20" height="20" viewBox="0 0 20 20" fill="none" xmlns="http://www.w3.org/2000/svg">
<g clip-path="url(#clip0_3205_112486)">
<path d="M15.8333 8.33333L10 2.5L2.5 10H4.16667V15.8333C4.16667 16.2754 4.34226 16.6993 4.65482 17.0118C4.96738 17.3244 5.39131 17.5 5.83333 17.5H10.8333" stroke="#1D716D" stroke-width="1.5" stroke-linecap="round" stroke-linejoin="round"/>
<path fill-rule="evenodd" clip-rule="evenodd" d="M14.2002 13.0467C14.1965 12.9229 14.1592 12.8024 14.0923 12.6982C14.0253 12.594 13.9314 12.5099 13.8203 12.455C13.6914 12.3882 13.5521 12.3437 13.4083 12.3235C13.4196 12.2503 13.4371 12.1755 13.4547 12.1007L13.4839 11.8891C13.6088 11.9243 13.7277 11.9784 13.8364 12.0493C13.8723 12.0781 13.9181 12.0916 13.9639 12.0867C14.0097 12.0818 14.0517 12.059 14.0807 12.0232C14.0958 12.0053 14.1073 11.9845 14.1145 11.9621C14.1216 11.9397 14.1243 11.9161 14.1223 11.8927C14.1203 11.8693 14.1137 11.8465 14.1029 11.8256C14.0921 11.8047 14.0772 11.7862 14.0593 11.7711C13.9095 11.6457 13.7402 11.5457 13.558 11.4751C13.5904 11.276 13.6173 11.0682 13.6537 10.8715C13.6618 10.8445 13.6632 10.8159 13.6579 10.7882C13.6525 10.7605 13.6405 10.7345 13.6229 10.7125C13.6053 10.6904 13.5826 10.673 13.5567 10.6617C13.5309 10.6504 13.5027 10.6455 13.4745 10.6475C13.4405 10.6503 13.4081 10.6632 13.3816 10.6847C13.355 10.7061 13.3356 10.7351 13.3258 10.7678C13.2383 10.961 13.1643 11.1675 13.0807 11.363C12.9843 11.3372 12.8858 11.32 12.7864 11.3116C12.6849 11.31 12.5841 11.3287 12.4899 11.3667C12.3957 11.4046 12.3101 11.4611 12.2381 11.5326C12.1661 11.6042 12.1091 11.6894 12.0705 11.7833C12.032 11.8773 12.0126 11.9779 12.0135 12.0795C12.0023 12.2009 12.0247 12.3231 12.0783 12.4327C12.1319 12.5423 12.2146 12.635 12.3174 12.7007C12.4198 12.7578 12.5308 12.7982 12.646 12.8203L12.6211 12.9706C12.5994 13.1334 12.5943 13.2954 12.5696 13.4724C12.3397 13.4351 12.1296 13.3203 11.9738 13.1472C11.9593 13.1262 11.9408 13.1083 11.9194 13.0945C11.8979 13.0808 11.8739 13.0714 11.8488 13.067C11.8237 13.0625 11.7979 13.0631 11.7731 13.0687C11.7482 13.0743 11.7247 13.0848 11.7039 13.0996C11.6821 13.1139 11.6635 13.1325 11.6491 13.1542C11.6348 13.1759 11.625 13.2003 11.6203 13.2259C11.6156 13.2515 11.6162 13.2777 11.622 13.3031C11.6277 13.3285 11.6386 13.3524 11.6539 13.3735C11.8701 13.6609 12.1785 13.8643 12.5281 13.9483L12.5065 14.2283C12.5025 14.2539 12.5035 14.2801 12.5097 14.3053C12.5158 14.3305 12.5269 14.3543 12.5422 14.3752C12.5576 14.3961 12.5769 14.4138 12.5991 14.4273C12.6212 14.4407 12.6459 14.4496 12.6715 14.4535C12.6981 14.4583 12.7253 14.4574 12.7515 14.451C12.7777 14.4445 12.8022 14.4327 12.8235 14.4162C12.8448 14.3996 12.8624 14.3788 12.8751 14.3551C12.8879 14.3313 12.8955 14.3051 12.8975 14.2782L12.9711 14.0183C13.0789 14.0323 13.1869 14.0357 13.2951 14.0286C13.4202 14.0274 13.5438 14.0005 13.6581 13.9496C13.7725 13.8988 13.8752 13.8251 13.96 13.733C14.0448 13.641 14.1098 13.5325 14.1511 13.4144C14.1924 13.2962 14.2091 13.1709 14.2001 13.046M12.5977 12.0998C12.5846 11.9057 12.7255 11.8293 12.8952 11.8123C12.8719 11.8518 12.8486 11.8913 12.845 11.9424C12.8415 11.9935 12.7936 12.1196 12.7707 12.2125L12.6856 12.1943C12.6415 12.1789 12.5997 12.1595 12.5954 12.1037L12.5977 12.0998ZM13.1052 13.5119C13.1475 13.3772 13.1835 13.2441 13.2195 13.111L13.2585 12.9638C13.3307 12.9726 13.4015 12.9879 13.4711 13.0094C13.5106 13.0328 13.55 13.0561 13.5597 13.0937C13.5916 13.3733 13.3636 13.4889 13.1028 13.5159L13.1052 13.5119Z" fill="#1D716D"/>
<path fill-rule="evenodd" clip-rule="evenodd" d="M17.7826 14.2359C17.8358 13.9538 17.8742 13.6691 17.8977 13.383C17.9101 13.0883 17.9068 12.7931 17.8876 12.4987C17.8468 11.822 17.7446 11.1503 17.5822 10.4921C17.5774 10.4697 17.5681 10.4486 17.5548 10.4301C17.5414 10.4116 17.5244 10.396 17.5047 10.3844C17.4851 10.3728 17.4632 10.3654 17.4405 10.3626C17.4179 10.3599 17.3949 10.3619 17.373 10.3685C17.3362 10.3755 17.3033 10.3959 17.2807 10.4258C17.265 10.3884 17.2378 10.3572 17.2029 10.3366C17.1681 10.316 17.1275 10.3072 17.0873 10.3116C16.5432 10.3425 15.9978 10.3421 15.4538 10.3104C15.1077 10.2907 14.766 10.2233 14.4384 10.1099C13.7767 9.81557 13.1392 9.46939 12.532 9.07461C12.2368 8.92069 11.9243 8.80229 11.6012 8.72187C11.236 8.64572 10.8616 8.6237 10.49 8.65651C9.9606 8.70009 9.43884 8.81068 8.93724 8.98562C8.91373 8.99483 8.89237 9.00879 8.8745 9.02663C8.85664 9.04448 8.84265 9.06582 8.83342 9.08932C8.79142 9.08545 8.74948 9.09736 8.71579 9.12274C8.68211 9.14812 8.65908 9.18515 8.65122 9.22659C8.5052 9.81637 8.32384 10.4119 8.19055 11.0252C8.07073 11.5476 7.99372 12.0789 7.96031 12.6139C7.91413 13.245 7.91715 13.8788 7.96936 14.5094C7.97246 14.5477 7.98719 14.584 8.01156 14.6136C8.03594 14.6433 8.0688 14.6647 8.10572 14.6751C8.08233 14.7087 8.07148 14.7494 8.07508 14.7901C8.08283 14.8348 8.10732 14.8749 8.14357 14.9023C8.17982 14.9296 8.22512 14.9421 8.27027 14.9373C8.80778 14.885 9.34849 14.8733 9.88776 14.9024C10.4019 14.9218 10.9088 15.0302 11.3859 15.2229C11.8567 15.4071 12.3153 15.621 12.7589 15.8634C13.2291 16.1144 13.7208 16.3228 14.2281 16.4862C14.9295 16.7106 15.6786 16.741 16.3959 16.5741C16.4467 16.5649 16.4918 16.5362 16.5217 16.4941C16.5515 16.452 16.5637 16.3999 16.5555 16.3489C16.5405 16.2993 16.5075 16.2572 16.4629 16.2308C16.4183 16.2045 16.3654 16.1959 16.3147 16.2068C15.6669 16.2982 15.0065 16.2216 14.3967 15.9843C13.9341 15.784 13.4841 15.5556 13.0494 15.3004C12.5858 15.0389 12.1019 14.8154 11.6023 14.6321C11.1571 14.4913 10.6936 14.4167 10.2267 14.4106C9.59011 14.4111 8.95518 14.4748 8.3312 14.6007C8.34936 14.5797 8.36358 14.5557 8.37315 14.5296C8.40643 13.8953 8.47736 13.2636 8.58556 12.6377C8.64948 12.2229 8.72363 11.809 8.78522 11.3982C8.87938 10.6979 8.93225 9.99458 9.00221 9.31729L9.03773 9.33826C9.44337 9.23544 9.85873 9.17563 10.2769 9.15983C10.6712 9.14254 11.0654 9.19515 11.4414 9.31521C11.7332 9.4137 12.0135 9.54353 12.2773 9.70242L13.6034 10.4855C13.8091 10.5844 14.0226 10.666 14.2418 10.7295C14.6248 10.8365 15.0205 10.8911 15.4181 10.8918C15.9866 10.8674 16.5533 10.8109 17.1155 10.7226C17.1512 10.7154 17.1839 10.6976 17.2094 10.6717C17.2514 11.2978 17.2555 11.926 17.2218 12.5527C17.2127 12.8294 17.1997 13.1038 17.1843 13.3822C17.169 13.6606 17.156 13.935 17.1343 14.215C17.0973 14.8515 17.0201 15.4851 16.9031 16.1119C16.8963 16.1369 16.8945 16.163 16.8979 16.1887C16.9012 16.2144 16.9096 16.2392 16.9225 16.2617C16.9354 16.2842 16.9527 16.3039 16.9732 16.3197C16.9938 16.3355 17.0173 16.3471 17.0423 16.3538C17.0926 16.3662 17.1458 16.3583 17.1904 16.3318C17.2349 16.3053 17.2672 16.2624 17.2803 16.2122C17.5038 15.5689 17.6721 14.9079 17.7826 14.2359Z" fill="#1D716D"/>
<path fill-rule="evenodd" clip-rule="evenodd" d="M14.5018 14.7257C14.4837 14.7071 14.4621 14.6923 14.4383 14.6823C14.4144 14.6722 14.3887 14.6671 14.3628 14.6672C14.3369 14.6673 14.3113 14.6727 14.2875 14.6829C14.2637 14.6932 14.2422 14.7081 14.2243 14.7269C14.2058 14.7446 14.191 14.7659 14.1809 14.7894C14.1707 14.8129 14.1653 14.8382 14.1651 14.8638C14.1648 14.8895 14.1697 14.9149 14.1794 14.9386C14.189 14.9623 14.2034 14.9839 14.2215 15.002C14.4264 15.205 14.6789 15.3541 14.9556 15.4355C15.3473 15.5541 15.7542 15.6151 16.1635 15.6165C16.2458 15.5992 16.3219 15.5595 16.3832 15.5018C16.4445 15.4441 16.4887 15.3706 16.511 15.2895C16.7107 14.7184 16.8298 14.1223 16.8649 13.5183C16.9051 13.0545 16.8971 12.5878 16.8411 12.1256C16.8233 11.8694 16.7253 11.6253 16.5611 11.4279C16.4589 11.3544 16.3321 11.3235 16.2075 11.3416C15.7508 11.4661 15.2722 11.4888 14.8057 11.4079C14.7835 11.3973 14.7594 11.3915 14.7349 11.3908C14.7103 11.3902 14.6859 11.3947 14.6633 11.4042C14.6406 11.4136 14.6202 11.4277 14.6034 11.4456C14.5866 11.4635 14.5737 11.4847 14.5657 11.5079C14.5577 11.5311 14.5546 11.5558 14.5568 11.5802C14.5589 11.6047 14.5662 11.6284 14.5782 11.6498C14.5901 11.6713 14.6065 11.6899 14.6262 11.7046C14.6459 11.7193 14.6684 11.7296 14.6924 11.7349C14.9201 11.8208 15.1607 11.8675 15.404 11.873C15.6751 11.9181 15.9505 11.9325 16.2249 11.9161L16.2283 11.9553C16.2558 12.1738 16.2621 12.3958 16.2479 12.6163C16.2446 13.0455 16.2207 13.5637 16.1546 14.0091C16.1254 14.314 16.0795 14.617 16.0171 14.9179C15.9938 14.9574 15.9997 15.0195 15.9929 15.058C15.6867 15.0753 15.3796 15.0532 15.0791 14.9921C14.8676 14.9535 14.6686 14.8615 14.5018 14.7257ZM10.7415 10.312C11.0281 10.3133 11.3119 10.3672 11.579 10.4712C11.8696 10.5727 12.1412 10.7222 12.3823 10.9137C12.418 10.9426 12.4634 10.9567 12.5092 10.953C12.555 10.9493 12.5976 10.9281 12.6282 10.8939C12.6435 10.8755 12.6549 10.8542 12.6617 10.8313C12.6684 10.8083 12.6704 10.7843 12.6674 10.7605C12.6644 10.7368 12.6566 10.7139 12.6444 10.6934C12.6322 10.6728 12.6159 10.655 12.5966 10.641C12.3462 10.4034 12.0605 10.206 11.7498 10.0557C11.426 9.89043 11.0747 9.78579 10.7132 9.74698C10.5013 9.74671 10.2906 9.77839 10.0881 9.84095C9.91925 9.89181 9.76584 9.98424 9.64193 10.1098C9.5607 10.1987 9.4988 10.3035 9.46014 10.4176C9.41672 10.541 9.37986 10.6665 9.34957 10.7941C9.30461 10.9964 9.2487 11.2083 9.20929 11.4192C9.16989 11.6302 9.13605 11.8497 9.11243 12.07L9.04095 13.0924L9.02237 13.3582C9.02133 13.4176 9.03781 13.476 9.06975 13.5261C9.1017 13.5762 9.14769 13.6158 9.20199 13.6399C9.32881 13.6776 9.65523 13.5935 10.0981 13.6368C10.2624 13.645 10.4253 13.6715 10.5836 13.716C10.6084 13.7291 10.6357 13.7368 10.6637 13.7384C10.6917 13.7401 10.7198 13.7358 10.7459 13.7257C10.7721 13.7157 10.7958 13.7001 10.8155 13.6801C10.8351 13.6601 10.8502 13.6361 10.8598 13.6097C10.8696 13.5836 10.8736 13.5557 10.8718 13.5278C10.8699 13.5 10.8621 13.4729 10.849 13.4482C10.8358 13.4236 10.8176 13.4021 10.7955 13.385C10.7734 13.368 10.748 13.3558 10.7209 13.3493C10.5295 13.2722 10.33 13.2169 10.1262 13.1845C9.93632 13.1614 9.74463 13.1569 9.55386 13.1712L9.7048 12.1584L9.95667 10.9658C9.98122 10.8792 9.99555 10.7918 10.0224 10.7012C10.0395 10.655 10.0648 10.6122 10.097 10.5749C10.1634 10.5076 10.2469 10.459 10.3389 10.4357C10.4688 10.381 10.6032 10.3398 10.7421 10.3118" fill="#1D716D"/>
</g>
<defs>
<clipPath id="clip0_3205_112486">
<rect width="20" height="20" fill="white"/>
</clipPath>
</defs>
</svg>
