<svg width="20" height="20" viewBox="0 0 20 20" fill="none" xmlns="http://www.w3.org/2000/svg">
<path d="M15.8333 10H17.5L10 2.5L2.5 10H4.16667V15.8333C4.16667 16.2754 4.34226 16.6993 4.65482 17.0118C4.96738 17.3244 5.39131 17.5 5.83333 17.5H10.4167" stroke="#D9602B" stroke-width="1.5" stroke-linecap="round" stroke-linejoin="round"/>
<path d="M9.1875 13.7266L8.23082 13.7521C8.22088 13.6839 8.19389 13.6236 8.14986 13.571C8.10582 13.517 8.0483 13.4751 7.97727 13.4453C7.90767 13.4141 7.8267 13.3984 7.73438 13.3984C7.61364 13.3984 7.51065 13.4226 7.42543 13.4709C7.34162 13.5192 7.30043 13.5845 7.30185 13.6669C7.30043 13.7308 7.32599 13.7862 7.37855 13.8331C7.43253 13.88 7.52841 13.9176 7.66619 13.946L8.29688 14.0653C8.62358 14.1278 8.86648 14.2315 9.02557 14.3764C9.18608 14.5213 9.26705 14.7131 9.26847 14.9517C9.26705 15.1761 9.20028 15.3714 9.06818 15.5376C8.9375 15.7038 8.75852 15.8331 8.53125 15.9254C8.30398 16.0163 8.04403 16.0618 7.75142 16.0618C7.28409 16.0618 6.91548 15.9659 6.6456 15.7741C6.37713 15.581 6.22372 15.3224 6.18537 14.9986L7.21449 14.973C7.23722 15.0923 7.29616 15.1832 7.39134 15.2457C7.48651 15.3082 7.60795 15.3395 7.75568 15.3395C7.8892 15.3395 7.99787 15.3146 8.08168 15.2649C8.16548 15.2152 8.2081 15.1491 8.20952 15.0668C8.2081 14.9929 8.17543 14.9339 8.11151 14.8899C8.04759 14.8445 7.94744 14.8089 7.81108 14.7834L7.24006 14.6747C6.91193 14.6151 6.66761 14.505 6.5071 14.3445C6.34659 14.1825 6.26705 13.9766 6.26847 13.7266C6.26705 13.5078 6.32528 13.321 6.44318 13.1662C6.56108 13.0099 6.72869 12.8906 6.94602 12.8082C7.16335 12.7259 7.41974 12.6847 7.7152 12.6847C8.15838 12.6847 8.50781 12.7777 8.76349 12.9638C9.01918 13.1484 9.16051 13.4027 9.1875 13.7266ZM10.704 16.0554C10.4952 16.0554 10.3098 16.0206 10.1479 15.951C9.98739 15.88 9.86026 15.7734 9.76651 15.6314C9.67418 15.4879 9.62802 15.3082 9.62802 15.0923C9.62802 14.9105 9.65998 14.7571 9.7239 14.6321C9.78782 14.5071 9.87589 14.4055 9.9881 14.3274C10.1003 14.2493 10.2296 14.1903 10.3759 14.1506C10.5222 14.1094 10.6784 14.0817 10.8446 14.0675C11.0307 14.0504 11.1806 14.0327 11.2942 14.0142C11.4078 13.9943 11.4902 13.9666 11.5414 13.9311C11.5939 13.8942 11.6202 13.8423 11.6202 13.7756V13.7649C11.6202 13.6555 11.5826 13.571 11.5073 13.5114C11.432 13.4517 11.3304 13.4219 11.2026 13.4219C11.0648 13.4219 10.954 13.4517 10.8702 13.5114C10.7864 13.571 10.7331 13.6534 10.7104 13.7585L9.74947 13.7244C9.77788 13.5256 9.85103 13.348 9.96893 13.1918C10.0882 13.0341 10.2516 12.9105 10.459 12.821C10.6678 12.7301 10.9185 12.6847 11.2111 12.6847C11.4199 12.6847 11.6124 12.7095 11.7885 12.7592C11.9647 12.8075 12.1181 12.8786 12.2488 12.9723C12.3794 13.0646 12.4803 13.1783 12.5513 13.3132C12.6238 13.4482 12.66 13.6023 12.66 13.7756V16H11.6799V15.544H11.6543C11.5961 15.6548 11.5215 15.7486 11.4306 15.8253C11.3411 15.902 11.2353 15.9595 11.1131 15.9979C10.9924 16.0362 10.856 16.0554 10.704 16.0554ZM11.0257 15.3736C11.138 15.3736 11.2388 15.3509 11.3283 15.3054C11.4192 15.2599 11.4917 15.1974 11.5456 15.1179C11.5996 15.0369 11.6266 14.9432 11.6266 14.8366V14.5256C11.5968 14.5412 11.5605 14.5554 11.5179 14.5682C11.4767 14.581 11.4313 14.593 11.3816 14.6044C11.3319 14.6158 11.2807 14.6257 11.2282 14.6342C11.1756 14.6428 11.1252 14.6506 11.0769 14.6577C10.9789 14.6733 10.8951 14.6974 10.8255 14.7301C10.7573 14.7628 10.7047 14.8054 10.6678 14.858C10.6323 14.9091 10.6145 14.9702 10.6145 15.0412C10.6145 15.1491 10.6529 15.2315 10.7296 15.2884C10.8077 15.3452 10.9064 15.3736 11.0257 15.3736ZM14.339 11.6364V16H13.2971V11.6364H14.339ZM16.532 16.0618C16.1896 16.0618 15.8942 15.9943 15.6456 15.8594C15.3984 15.723 15.2081 15.5291 15.0746 15.2777C14.9425 15.0249 14.8764 14.7244 14.8764 14.3764C14.8764 14.0384 14.9432 13.7429 15.0767 13.4901C15.2102 13.2358 15.3984 13.0384 15.6413 12.8977C15.8842 12.7557 16.1705 12.6847 16.5 12.6847C16.733 12.6847 16.946 12.7209 17.1392 12.7933C17.3324 12.8658 17.4993 12.973 17.6399 13.1151C17.7805 13.2571 17.8899 13.4325 17.968 13.6413C18.0462 13.8487 18.0852 14.0866 18.0852 14.3551V14.6151H15.2408V14.0099H17.1158C17.1143 13.8991 17.0881 13.8004 17.0369 13.7138C16.9858 13.6271 16.9155 13.5597 16.826 13.5114C16.7379 13.4616 16.6364 13.4368 16.5213 13.4368C16.4048 13.4368 16.3004 13.4631 16.2081 13.5156C16.1158 13.5668 16.0426 13.6371 15.9886 13.7266C15.9347 13.8146 15.9063 13.9148 15.9034 14.027V14.6428C15.9034 14.7763 15.9297 14.8935 15.9822 14.9943C16.0348 15.0937 16.1094 15.1712 16.206 15.2266C16.3026 15.282 16.4176 15.3097 16.5511 15.3097C16.6435 15.3097 16.7273 15.2969 16.8026 15.2713C16.8778 15.2457 16.9425 15.2081 16.9964 15.1584C17.0504 15.1087 17.0909 15.0476 17.1179 14.9751L18.0746 15.0028C18.0348 15.2173 17.9474 15.4041 17.8125 15.5632C17.679 15.7209 17.5036 15.8437 17.2862 15.9318C17.0689 16.0185 16.8175 16.0618 16.532 16.0618Z" fill="#D9602B"/>
</svg>
