<svg width="20" height="20" viewBox="0 0 20 20" fill="none" xmlns="http://www.w3.org/2000/svg">
<path d="M15.8333 10H17.5L10 2.5L2.5 10H4.16667V15.8333C4.16667 16.2754 4.34226 16.6993 4.65482 17.0118C4.96738 17.3244 5.39131 17.5 5.83333 17.5H10.4167" stroke="#8C8C93" stroke-width="1.5" stroke-linecap="round" stroke-linejoin="round"/>
<path d="M14.5 11C16.425 11 18 12.575 18 14.5C18 16.425 16.425 18 14.5 18C12.575 18 11 16.425 11 14.5C11 12.575 12.575 11 14.5 11ZM14.5 11.7C13.835 11.7 13.24 11.91 12.785 12.295L16.705 16.215C17.055 15.725 17.3 15.13 17.3 14.5C17.3 12.96 16.04 11.7 14.5 11.7ZM16.215 16.705L12.295 12.785C11.91 13.24 11.7 13.835 11.7 14.5C11.7 16.04 12.96 17.3 14.5 17.3C15.165 17.3 15.76 17.09 16.215 16.705Z" fill="#8C8C93"/>
</svg>
