<svg width="20" height="20" viewBox="0 0 20 20" fill="none" xmlns="http://www.w3.org/2000/svg">
<path d="M5 16.6667C4.54167 16.6667 4.14944 16.5037 3.82333 16.1776C3.49722 15.8515 3.33389 15.459 3.33333 15.0001V8.85425L2.5 9.50008C2.31944 9.63897 2.11472 9.69453 1.88583 9.66675C1.65694 9.63897 1.47278 9.52786 1.33333 9.33341C1.19444 9.15286 1.1425 8.95147 1.1775 8.72925C1.2125 8.50703 1.32 8.32647 1.5 8.18758L8.97917 2.43758C9.13194 2.32647 9.29528 2.24314 9.46917 2.18758C9.64305 2.13203 9.82 2.10425 10 2.10425C10.18 2.10425 10.3572 2.13203 10.5317 2.18758C10.7061 2.24314 10.8692 2.32647 11.0208 2.43758L18.5 8.16675C18.6806 8.30564 18.7883 8.48619 18.8233 8.70841C18.8583 8.93064 18.8061 9.13897 18.6667 9.33341C18.5272 9.52786 18.3467 9.63564 18.125 9.65675C17.9033 9.67786 17.695 9.61869 17.5 9.47925L10 3.75008L5 7.58342V15.0001H6.6875C6.92361 15.0001 7.11805 15.0801 7.27083 15.2401C7.42361 15.4001 7.5 15.5979 7.5 15.8334C7.5 16.069 7.42 16.267 7.26 16.4276C7.1 16.5881 6.90222 16.6679 6.66667 16.6667H5ZM12.4375 17.9792C12.3264 17.9792 12.2222 17.9584 12.125 17.9167C12.0278 17.8751 11.9375 17.8126 11.8542 17.7292L9.5 15.3751C9.33333 15.2084 9.25 15.014 9.25 14.7917C9.25 14.5695 9.33333 14.3751 9.5 14.2084C9.66667 14.0417 9.86111 13.9584 10.0833 13.9584C10.3056 13.9584 10.5 14.0417 10.6667 14.2084L12.4375 15.9584L16.5625 11.8334C16.7292 11.6667 16.9272 11.587 17.1567 11.5942C17.3861 11.6015 17.5839 11.6881 17.75 11.8542C17.9161 12.0204 17.9994 12.2148 18 12.4376C18.0006 12.6604 17.9172 12.8548 17.75 13.0209L13.0208 17.7292C12.9375 17.8126 12.8472 17.8751 12.75 17.9167C12.6528 17.9584 12.5486 17.9792 12.4375 17.9792Z" fill="#47834A"/>
</svg>
