<svg width="20" height="20" viewBox="0 0 20 20" fill="none" xmlns="http://www.w3.org/2000/svg">
<g clip-path="url(#clip0_1810_24725)">
<path d="M1.66669 15C1.66669 15.663 1.93008 16.2989 2.39892 16.7678C2.86776 17.2366 3.50365 17.5 4.16669 17.5C4.82973 17.5 5.46561 17.2366 5.93445 16.7678C6.40329 16.2989 6.66669 15.663 6.66669 15C6.66669 14.337 6.40329 13.7011 5.93445 13.2322C5.46561 12.7634 4.82973 12.5 4.16669 12.5C3.50365 12.5 2.86776 12.7634 2.39892 13.2322C1.93008 13.7011 1.66669 14.337 1.66669 15Z" stroke="#2A1F9C" stroke-width="1.5" stroke-linecap="round" stroke-linejoin="round"/>
<path d="M13.3333 15C13.3333 15.663 13.5967 16.2989 14.0655 16.7678C14.5344 17.2366 15.1703 17.5 15.8333 17.5C16.4964 17.5 17.1322 17.2366 17.6011 16.7678C18.0699 16.2989 18.3333 15.663 18.3333 15C18.3333 14.337 18.0699 13.7011 17.6011 13.2322C17.1322 12.7634 16.4964 12.5 15.8333 12.5C15.1703 12.5 14.5344 12.7634 14.0655 13.2322C13.5967 13.7011 13.3333 14.337 13.3333 15Z" stroke="#2A1F9C" stroke-width="1.5" stroke-linecap="round" stroke-linejoin="round"/>
<path d="M10 15.8333V12.5L7.5 9.99996L11.6667 6.66663L13.3333 9.16663H15.8333" stroke="#2A1F9C" stroke-width="1.5" stroke-linecap="round" stroke-linejoin="round"/>
<path d="M13.3333 4.16671C13.3333 4.38772 13.4211 4.59968 13.5774 4.75596C13.7337 4.91224 13.9456 5.00004 14.1666 5.00004C14.3877 5.00004 14.5996 4.91224 14.7559 4.75596C14.9122 4.59968 15 4.38772 15 4.16671C15 3.94569 14.9122 3.73373 14.7559 3.57745C14.5996 3.42117 14.3877 3.33337 14.1666 3.33337C13.9456 3.33337 13.7337 3.42117 13.5774 3.57745C13.4211 3.73373 13.3333 3.94569 13.3333 4.16671Z" stroke="#2A1F9C" stroke-width="1.5" stroke-linecap="round" stroke-linejoin="round"/>
</g>
<defs>
<clipPath id="clip0_1810_24725">
<rect width="20" height="20" fill="white"/>
</clipPath>
</defs>
</svg>
