<svg width="20" height="20" viewBox="0 0 20 20" fill="none" xmlns="http://www.w3.org/2000/svg">
<path d="M11.6667 6.6665L8.33333 9.99984M8.33333 6.6665L11.6667 9.99984M6.25 12.9165H7.5M13.75 12.9165H10M17.5 5.83317V5.30817C17.5 4.314 17.5 3.8165 17.3683 3.4165C17.2485 3.04518 17.0448 2.70644 16.7729 2.42652C16.5011 2.1466 16.1685 1.93302 15.8008 1.80234C15.4108 1.6665 14.9283 1.6665 13.9625 1.6665H6.0375C5.07167 1.6665 4.58917 1.6665 4.19917 1.80234C3.83161 1.93294 3.49904 2.14639 3.22722 2.42616C2.9554 2.70592 2.75162 3.0445 2.63167 3.41567C2.5 3.81734 2.5 4.314 2.5 5.30817V12.4998M17.5 9.1665V16.9782C17.5 17.6932 16.6792 18.0732 16.16 17.5982C16.0143 17.4636 15.8233 17.3888 15.625 17.3888C15.4267 17.3888 15.2357 17.4636 15.09 17.5982L14.6875 17.9665C14.4323 18.2025 14.0976 18.3335 13.75 18.3335C13.4024 18.3335 13.0677 18.2025 12.8125 17.9665C12.5573 17.7305 12.2226 17.5995 11.875 17.5995C11.5274 17.5995 11.1927 17.7305 10.9375 17.9665C10.6823 18.2025 10.3476 18.3335 10 18.3335C9.65245 18.3335 9.31767 18.2025 9.0625 17.9665C8.80733 17.7305 8.47255 17.5995 8.125 17.5995C7.77745 17.5995 7.44267 17.7305 7.1875 17.9665C6.93233 18.2025 6.59755 18.3335 6.25 18.3335C5.90245 18.3335 5.56767 18.2025 5.3125 17.9665L4.91 17.5982C4.76434 17.4636 4.57331 17.3888 4.375 17.3888C4.17668 17.3888 3.98566 17.4636 3.84 17.5982C3.32083 18.0732 2.5 17.6932 2.5 16.9782V15.8332" stroke="#EF5350" stroke-width="1.5" stroke-linecap="round"/>
</svg>
