<svg width="20" height="20" viewBox="0 0 20 20" fill="none" xmlns="http://www.w3.org/2000/svg">
<g clip-path="url(#clip0_624_2565)">
<path d="M2.5 2.5V17.5H17.5" stroke="#29A19C" stroke-width="1.5" stroke-linecap="round" stroke-linejoin="round"/>
<path d="M5.83331 7.50001C5.83331 7.94204 6.00891 8.36596 6.32147 8.67852C6.63403 8.99108 7.05795 9.16668 7.49998 9.16668C7.94201 9.16668 8.36593 8.99108 8.67849 8.67852C8.99105 8.36596 9.16665 7.94204 9.16665 7.50001C9.16665 7.05798 8.99105 6.63406 8.67849 6.3215C8.36593 6.00894 7.94201 5.83334 7.49998 5.83334C7.05795 5.83334 6.63403 6.00894 6.32147 6.3215C6.00891 6.63406 5.83331 7.05798 5.83331 7.50001Z" stroke="#29A19C" stroke-width="1.5" stroke-linecap="round" stroke-linejoin="round"/>
<path d="M14.1667 5.83332C14.1667 6.27535 14.3423 6.69927 14.6548 7.01183C14.9674 7.32439 15.3913 7.49999 15.8334 7.49999C16.2754 7.49999 16.6993 7.32439 17.0119 7.01183C17.3244 6.69927 17.5 6.27535 17.5 5.83332C17.5 5.3913 17.3244 4.96737 17.0119 4.65481C16.6993 4.34225 16.2754 4.16666 15.8334 4.16666C15.3913 4.16666 14.9674 4.34225 14.6548 4.65481C14.3423 4.96737 14.1667 5.3913 14.1667 5.83332Z" stroke="#29A19C" stroke-width="1.5" stroke-linecap="round" stroke-linejoin="round"/>
<path d="M10 12.5C10 12.942 10.1756 13.366 10.4882 13.6785C10.8007 13.9911 11.2246 14.1667 11.6667 14.1667C12.1087 14.1667 12.5326 13.9911 12.8452 13.6785C13.1577 13.366 13.3333 12.942 13.3333 12.5C13.3333 12.058 13.1577 11.6341 12.8452 11.3215C12.5326 11.0089 12.1087 10.8333 11.6667 10.8333C11.2246 10.8333 10.8007 11.0089 10.4882 11.3215C10.1756 11.6341 10 12.058 10 12.5Z" stroke="#29A19C" stroke-width="1.5" stroke-linecap="round" stroke-linejoin="round"/>
<path d="M8.46667 8.85001L10.4167 11.25" stroke="#29A19C" stroke-width="1.5" stroke-linecap="round" stroke-linejoin="round"/>
<path d="M12.5749 11.1068L14.9391 7.28516" stroke="#29A19C" stroke-width="1.5" stroke-linecap="round" stroke-linejoin="round"/>
</g>
<defs>
<clipPath id="clip0_624_2565">
<rect width="20" height="20" fill="white"/>
</clipPath>
</defs>
</svg>
