<svg width="20" height="20" viewBox="0 0 20 20" fill="none" xmlns="http://www.w3.org/2000/svg">
<g clip-path="url(#clip0_3354_15022)">
<path d="M10.8333 14.1666C10.8333 15.0506 11.1844 15.8985 11.8096 16.5236C12.4347 17.1487 13.2825 17.4999 14.1666 17.4999C15.0506 17.4999 15.8985 17.1487 16.5236 16.5236C17.1487 15.8985 17.4999 15.0506 17.4999 14.1666C17.4999 13.2825 17.1487 12.4347 16.5236 11.8096C15.8985 11.1844 15.0506 10.8333 14.1666 10.8333C13.2825 10.8333 12.4347 11.1844 11.8096 11.8096C11.1844 12.4347 10.8333 13.2825 10.8333 14.1666Z" stroke="#29A19C" stroke-width="1.5" stroke-linecap="round" stroke-linejoin="round"/>
<path d="M14.1667 10.8333V14.1666H17.5001" stroke="#29A19C" stroke-width="1.5" stroke-linecap="round" stroke-linejoin="round"/>
<path d="M10 2.5V5.83333C10 6.05435 10.0878 6.26631 10.2441 6.42259C10.4004 6.57887 10.6123 6.66667 10.8333 6.66667H14.1667" stroke="#29A19C" stroke-width="1.5" stroke-linecap="round" stroke-linejoin="round"/>
<path d="M9.58333 17.5H4.16667C3.72464 17.5 3.30072 17.3244 2.98816 17.0118C2.67559 16.6993 2.5 16.2754 2.5 15.8333V4.16667C2.5 3.72464 2.67559 3.30072 2.98816 2.98816C3.30072 2.67559 3.72464 2.5 4.16667 2.5H10L14.1667 6.66667V8.33333M14.1667 10.8333V14.1667" stroke="#29A19C" stroke-width="1.5" stroke-linecap="round" stroke-linejoin="round"/>
</g>
<defs>
<clipPath id="clip0_3354_15022">
<rect width="20" height="20" fill="white"/>
</clipPath>
</defs>
</svg>
