<svg width="17" height="20" viewBox="0 0 17 20" fill="none" xmlns="http://www.w3.org/2000/svg">
<g opacity="0.3">
<path opacity="0.3" d="M11.6392 4.10322C11.1836 4.10278 10.7468 3.9216 10.4246 3.59944C10.1024 3.27729 9.92127 2.84048 9.92083 2.38488V-0.00012207H2.24249C1.64789 -0.000122111 1.07763 0.236028 0.657104 0.656399C0.236578 1.07677 0.00022096 1.64694 0 2.24155V15.7599C0.000662558 16.3542 0.237216 16.924 0.657694 17.344C1.07817 17.764 1.64818 17.9999 2.24249 17.9999H11.4592C11.7537 18 12.0454 17.9421 12.3176 17.8295C12.5898 17.7168 12.8371 17.5516 13.0454 17.3434C13.2537 17.1351 13.419 16.8879 13.5317 16.6158C13.6445 16.3436 13.7025 16.052 13.7025 15.7574V4.10322H11.6392Z" fill="#00C650"/>
</g>
<path d="M13.7025 4.10322H11.6392C11.1836 4.10278 10.7468 3.9216 10.4246 3.59944C10.1025 3.27729 9.92129 2.84048 9.92085 2.38488V-0.00012207L13.7025 4.10322Z" fill="#00C650"/>
<path d="M15.3283 14.2166H4.90834C4.1692 14.2166 3.57002 14.8157 3.57002 15.5549V18.6615C3.57002 19.4007 4.1692 19.9999 4.90834 19.9999H15.3283C16.0675 19.9999 16.6667 19.4007 16.6667 18.6615V15.5549C16.6667 14.8157 16.0675 14.2166 15.3283 14.2166Z" fill="#00C650"/>
<path d="M8.15167 15.8807V18.3866H7.54167V17.3407H6.59167V18.3866H5.98584V15.8807H6.59167V16.8516H7.54167V15.8807H8.15167Z" fill="white"/>
<path d="M10.37 15.8807V16.3624H9.69V18.3866H9.08333V16.3624H8.40999V15.8807H10.37Z" fill="white"/>
<path d="M13.4433 15.8982V18.3865H12.8333V16.8332L12.295 18.389H11.77L11.2283 16.8299V18.389H10.6217V15.9007H11.3625L12.04 17.634L12.7025 15.9007L13.4433 15.8982Z" fill="white"/>
<path d="M14.4675 17.9224H15.2758V18.3866H13.8592V15.8807H14.4658L14.4675 17.9224Z" fill="white"/>
<path d="M3.46998 9.51566C3.46906 9.47973 3.48022 9.44452 3.50165 9.41566C3.52693 9.38318 3.55734 9.35504 3.59166 9.33233C3.64357 9.30528 3.69731 9.28189 3.75249 9.26233L3.91332 9.19566L4.55665 8.92483C4.64609 8.88316 4.81276 8.81372 5.05665 8.7165L5.36249 8.5915L5.47248 8.55233L5.49164 8.54399C5.49686 8.54281 5.50228 8.54281 5.50749 8.54399C5.51981 8.53847 5.53316 8.53562 5.54666 8.53566C5.57246 8.53433 5.59826 8.53813 5.62258 8.54686C5.6469 8.55558 5.66925 8.56906 5.68832 8.5865C5.70422 8.60186 5.71691 8.62024 5.72563 8.64055C5.73436 8.66087 5.73896 8.68272 5.73916 8.70483V8.9165C5.73841 8.95591 5.72592 8.99421 5.70331 9.0265C5.68064 9.06291 5.64626 9.09053 5.60582 9.10483L4.29165 9.64233L5.60582 10.1798C5.64484 10.1958 5.67861 10.2223 5.70331 10.2565C5.72679 10.2874 5.73941 10.3252 5.73916 10.364V10.5757C5.73865 10.6208 5.72038 10.6639 5.68832 10.6957C5.66958 10.7137 5.64733 10.7276 5.62295 10.7367C5.59858 10.7457 5.57261 10.7496 5.54666 10.7482C5.53325 10.7481 5.51998 10.7456 5.50749 10.7407L5.47248 10.729L5.36249 10.6898L5.05665 10.564L4.55665 10.3565L3.91332 10.0857L3.75249 10.019C3.69999 9.99817 3.64666 9.97483 3.59166 9.94816C3.55743 9.9323 3.52808 9.90754 3.50668 9.87646C3.48528 9.84539 3.47259 9.80914 3.46998 9.7715V9.51566Z" fill="#00C650"/>
<path d="M6.10164 10.9749C6.04969 10.9767 5.99892 10.9592 5.95914 10.9257C5.94144 10.912 5.92707 10.8945 5.91711 10.8744C5.90715 10.8544 5.90187 10.8323 5.90165 10.8099C5.90165 10.7782 5.99581 10.5599 6.18414 10.1432L6.45914 9.53907L6.51747 9.41323L6.96081 8.42906L7.11747 8.08823L7.14915 8.0099C7.16129 7.98098 7.17579 7.95311 7.19248 7.92656C7.21447 7.89047 7.24566 7.86088 7.28285 7.84082C7.32005 7.82076 7.36192 7.81095 7.40415 7.8124H7.59997C7.65217 7.81061 7.70319 7.82812 7.7433 7.86156C7.76086 7.87536 7.77508 7.89294 7.78489 7.913C7.7947 7.93306 7.79987 7.95507 7.79998 7.9774C7.73327 8.17171 7.65479 8.36178 7.56498 8.54656L7.52164 8.64073L7.18831 9.3699L6.74497 10.3541L6.58832 10.6957L6.55664 10.7741C6.54543 10.8054 6.5312 10.8355 6.51414 10.8641C6.49053 10.8996 6.45843 10.9286 6.42073 10.9486C6.38304 10.9685 6.34096 10.9787 6.29832 10.9782L6.10164 10.9749Z" fill="#00C650"/>
<path d="M8.16083 10.7499C8.13436 10.7516 8.10782 10.7478 8.08287 10.7387C8.05793 10.7297 8.03511 10.7156 8.01583 10.6974C7.99974 10.6818 7.98695 10.6632 7.97822 10.6426C7.96948 10.622 7.96499 10.5998 7.96501 10.5774V10.3657C7.96463 10.3273 7.97628 10.2897 7.99834 10.2582C8.02327 10.2233 8.05809 10.1966 8.09833 10.1816L9.41584 9.64407L8.09833 9.10656C8.05821 9.08885 8.02407 9.05991 8.00001 9.02323C7.97787 8.99138 7.96569 8.95368 7.96501 8.9149V8.6999C7.96504 8.6776 7.9697 8.65556 7.97875 8.63518C7.98779 8.61481 8.00099 8.59654 8.0175 8.58156C8.05682 8.54656 8.10825 8.52832 8.16083 8.53073C8.17329 8.53042 8.18564 8.53329 8.19668 8.53906C8.20385 8.5378 8.21118 8.5378 8.21835 8.53906L8.23585 8.5474C8.23001 8.5474 8.26585 8.5574 8.34168 8.58656L8.65168 8.71156C8.63557 8.70434 8.80223 8.77379 9.15168 8.9199C9.34223 8.99823 9.56056 9.09101 9.80667 9.19823C9.8225 9.20323 9.84333 9.21156 9.87 9.22156L9.96001 9.2574C10.0128 9.27622 10.0638 9.29965 10.1125 9.3274C10.1476 9.34321 10.1776 9.36852 10.1991 9.40047C10.2206 9.43242 10.2328 9.46975 10.2342 9.50823V9.76657C10.2338 9.80206 10.2221 9.83651 10.2008 9.8649C10.1778 9.89742 10.1476 9.92422 10.1125 9.94323C10.0658 9.96657 10.0092 9.99157 9.94585 10.0182L9.77918 10.0849L8.3275 10.6924C8.28583 10.7132 8.26084 10.7266 8.25334 10.7316L8.23751 10.7432L8.16083 10.7499Z" fill="#00C650"/>
</svg>
