<svg width="19" height="22" viewBox="0 0 19 22" fill="none" xmlns="http://www.w3.org/2000/svg">
<g opacity="0.3">
<path opacity="0.3" d="M11.6387 5.07959C11.1831 5.07915 10.7463 4.89797 10.4242 4.57583C10.102 4.25369 9.92087 3.81689 9.92043 3.36132V0.975586H2.24242C1.6477 0.975586 1.07733 1.21185 0.656792 1.63238C0.23626 2.05291 0 2.62327 0 3.21799V16.7358C0 17.3305 0.23626 17.9009 0.656792 18.3214C1.07733 18.742 1.6477 18.9782 2.24242 18.9782H11.4587C12.0534 18.9782 12.6238 18.742 13.0443 18.3214C13.4649 17.9009 13.7011 17.3305 13.7011 16.7358V5.07959H11.6387Z" fill="#00C650"/>
</g>
<path d="M13.7011 5.07959H11.6387C11.1831 5.07915 10.7464 4.89797 10.4242 4.57583C10.1021 4.25369 9.92089 3.81689 9.92045 3.36132V0.975586L13.7011 5.07959Z" fill="#00C650"/>
<path d="M9.90712 13.5452H3.79737C3.26823 13.5452 2.83741 13.0186 2.83741 12.3702V7.93792C2.83741 7.29045 3.26823 6.76379 3.79737 6.76379H9.90963C10.4379 6.76379 10.8688 7.29045 10.8688 7.93792V12.3702C10.8663 13.0186 10.4354 13.5452 9.90712 13.5452ZM3.79737 7.36377C3.53822 7.36377 3.32823 7.62127 3.32823 7.93792V12.3702C3.32823 12.6869 3.53822 12.9444 3.79737 12.9444H9.90963C10.1679 12.9444 10.3779 12.6869 10.3779 12.3702V7.93792C10.3779 7.62127 10.1679 7.36377 9.90963 7.36377H3.79737Z" fill="#00C650"/>
<path d="M10.6212 10.8761H3.08073V11.4769H10.6212V10.8761Z" fill="#00C650"/>
<path d="M10.6212 8.81604H3.08073V9.41685H10.6212V8.81604Z" fill="#00C650"/>
<path d="M8.68962 7.06372H8.08881V13.2443H8.68962V7.06372Z" fill="#00C650"/>
<path d="M5.61227 7.06372H5.01147V13.2443H5.61227V7.06372Z" fill="#00C650"/>
<rect x="4.66699" y="15.0244" width="13.5" height="6" rx="1" fill="#66BB6A"/>
<path d="M6.83212 19.0244V16.8426H8.35343V17.2709H7.35946V17.7183H8.27566V18.1476H7.35946V18.5961H8.35343V19.0244H6.83212ZM9.21742 16.8426L9.61586 17.5319H9.6329L10.0356 16.8426H10.6258L9.96742 17.9335L10.6471 19.0244H10.042L9.6329 18.3277H9.61586L9.20676 19.0244H8.60591L9.2824 17.9335L8.62296 16.8426H9.21742ZM12.7559 17.6331H12.2233C12.2162 17.5784 12.2016 17.529 12.1796 17.485C12.1576 17.441 12.1285 17.4033 12.0922 17.3721C12.056 17.3408 12.0131 17.317 11.9633 17.3007C11.9143 17.2836 11.86 17.2751 11.8003 17.2751C11.6945 17.2751 11.6032 17.301 11.5265 17.3529C11.4506 17.4047 11.392 17.4797 11.3508 17.5777C11.3103 17.6757 11.29 17.7943 11.29 17.9335C11.29 18.0784 11.3106 18.1998 11.3518 18.2979C11.3937 18.3952 11.4523 18.4687 11.5276 18.5184C11.6036 18.5674 11.6934 18.5919 11.7971 18.5919C11.8554 18.5919 11.9083 18.5844 11.9559 18.5695C12.0042 18.5546 12.0464 18.5329 12.0827 18.5045C12.1196 18.4754 12.1498 18.4403 12.1732 18.3991C12.1974 18.3572 12.214 18.3099 12.2233 18.2574L12.7559 18.2606C12.7467 18.3572 12.7187 18.4523 12.6718 18.5461C12.6256 18.6398 12.5621 18.7254 12.4811 18.8028C12.4001 18.8795 12.3014 18.9406 12.1849 18.9861C12.0692 19.0315 11.9363 19.0542 11.7865 19.0542C11.589 19.0542 11.4122 19.0109 11.2559 18.9243C11.1004 18.8369 10.9775 18.7098 10.8873 18.5429C10.7971 18.376 10.752 18.1729 10.752 17.9335C10.752 17.6934 10.7979 17.49 10.8895 17.3231C10.9811 17.1562 11.105 17.0294 11.2613 16.9427C11.4175 16.8561 11.5926 16.8128 11.7865 16.8128C11.9186 16.8128 12.0407 16.8312 12.153 16.8682C12.2652 16.9044 12.3639 16.9577 12.4491 17.028C12.5344 17.0976 12.6036 17.1831 12.6569 17.2847C12.7101 17.3863 12.7432 17.5024 12.7559 17.6331ZM13.0577 19.0244V16.8426H14.579V17.2709H13.585V17.7183H14.5012V18.1476H13.585V18.5961H14.579V19.0244H13.0577ZM14.9093 19.0244V16.8426H15.4366V18.5961H16.3443V19.0244H14.9093Z" fill="white"/>
</svg>
