<svg width="20" height="16" viewBox="0 0 20 16" fill="none" xmlns="http://www.w3.org/2000/svg">
<path d="M0.391351 15.4961C0.176108 15.4961 0 15.3206 0 15.1062V2.01287C0 1.17845 0.680951 0.5 1.51844 0.5H5.66285C6.18726 0.5 6.70776 0.671562 7.1265 0.983494L8.63712 2.10255C8.92281 2.3131 9.27894 2.43008 9.63507 2.43008H15.4897C16.3272 2.43008 17.0081 3.10853 17.0081 3.94294V14.0807C17.0081 14.8605 16.3702 15.5 15.5836 15.5H0.391351V15.4961Z" fill="black"/>
<path d="M8.40622 2.41446L6.89561 1.2954C6.53948 1.03026 6.10899 0.889893 5.66676 0.889893H1.51844C0.896193 0.889893 0.39135 1.39288 0.39135 2.01285V15.1062H15.5914C16.1628 15.1062 16.6246 14.6461 16.6246 14.0768V3.94292C16.6246 3.32296 16.1198 2.81997 15.4975 2.81997H9.63898C9.19284 2.81997 8.76235 2.6757 8.40622 2.41446Z" fill="url(#paint0_linear_3927_94251)"/>
<path d="M16.6207 3.943V7.44053L0.39135 15.1062V3.61157H16.5737C16.605 3.71685 16.6207 3.82992 16.6207 3.943Z" fill="url(#paint1_linear_3927_94251)"/>
<path d="M0.391349 15.4961C0.266117 15.4961 0.144798 15.4337 0.0743549 15.3323C-1.81486e-06 15.2309 -0.0195694 15.0984 0.0234793 14.9775L3.20125 5.79892C3.41258 5.19065 3.99178 4.77734 4.63751 4.77734H18.4796C18.9766 4.77734 19.4267 5.00739 19.7163 5.4129C20.0059 5.81841 20.0763 6.3175 19.9159 6.7854L17.2547 14.4706C17.0433 15.0789 16.4681 15.4922 15.8184 15.4922H0.391349V15.4961Z" fill="black"/>
<path d="M3.56912 5.92762L0.39135 15.1062H15.8184C16.2998 15.1062 16.7263 14.8021 16.8829 14.3498L19.5441 6.66456C19.7985 5.93542 19.2506 5.17509 18.4796 5.17509H4.6336C4.15223 5.17119 3.72566 5.47532 3.56912 5.92762Z" fill="url(#paint2_linear_3927_94251)"/>
<defs>
<linearGradient id="paint0_linear_3927_94251" x1="0.563153" y1="1.37651" x2="15.1279" y2="15.9949" gradientUnits="userSpaceOnUse">
<stop stop-color="#F6C012"/>
<stop offset="0.86" stop-color="#FFA500"/>
</linearGradient>
<linearGradient id="paint1_linear_3927_94251" x1="8.50602" y1="15.1062" x2="8.50602" y2="3.61157" gradientUnits="userSpaceOnUse">
<stop stop-opacity="0.25"/>
<stop offset="1" stop-opacity="0"/>
</linearGradient>
<linearGradient id="paint2_linear_3927_94251" x1="4.42383" y1="4.9154" x2="15.4279" y2="15.96" gradientUnits="userSpaceOnUse">
<stop stop-color="#FFE69D"/>
<stop offset="1" stop-color="#FFC321"/>
</linearGradient>
</defs>
</svg>
