<svg width="17" height="20" viewBox="0 0 17 20" fill="none" xmlns="http://www.w3.org/2000/svg">
<g opacity="0.3">
<path opacity="0.3" d="M11.642 4.10401C11.1862 4.10356 10.7492 3.92231 10.4269 3.60001C10.1046 3.27771 9.92338 2.8407 9.92294 2.38491V0H2.2424C1.64768 0 1.07732 0.23625 0.656784 0.656784C0.23625 1.07732 0 1.64769 0 2.24241V15.7602C0.000883163 16.3544 0.237526 16.9239 0.657964 17.3437C1.0784 17.7635 1.64826 17.9993 2.2424 17.9993H11.4587C12.0534 17.9993 12.6238 17.763 13.0443 17.3425C13.4649 16.922 13.7011 16.3516 13.7011 15.7569V4.10067L11.642 4.10401Z" fill="#98431E"/>
</g>
<path d="M13.7011 4.10401H11.6421C11.1863 4.10356 10.7492 3.92231 10.4269 3.60001C10.1047 3.27771 9.92339 2.8407 9.92295 2.38491V0L13.7011 4.10401Z" fill="#98431E"/>
<path d="M15.6715 14H5.32845C4.59476 14 4 14.6216 4 15.3885V18.6115C4 19.3784 4.59476 20 5.32845 20H15.6715C16.4052 20 17 19.3784 17 18.6115V15.3885C17 14.6216 16.4052 14 15.6715 14Z" fill="#98431E"/>
<path d="M8.1872 16.3628V16.8877H9.03383V17.3444H8.1872V17.901H9.14216V18.3868H7.58222V15.8811H9.14216V16.3628H8.1872Z" fill="#FDF7F4"/>
<path d="M11.0046 18.3868L10.4763 17.6069L10.0229 18.3868H9.32797L10.1288 17.0969L9.30298 15.8811H10.0229L10.5363 16.6361L10.9796 15.8811H11.6712L10.8804 17.1427L11.7237 18.3868H11.0046Z" fill="#FDF7F4"/>
<path d="M12.5637 16.3628V16.8877H13.4111V17.3444H12.5637V17.901H13.517V18.3868H11.9579V15.8811H13.517V16.3628H12.5637Z" fill="#FDF7F4"/>
<path d="M6.85058 12.3086C6.75555 12.3086 6.66441 12.2709 6.59721 12.2037C6.53001 12.1365 6.49226 12.0453 6.49226 11.9503V11.3995C6.49226 11.3525 6.50153 11.3059 6.51955 11.2625C6.53757 11.2191 6.56398 11.1796 6.59726 11.1464C6.63055 11.1132 6.67005 11.0869 6.71352 11.069C6.75699 11.0511 6.80356 11.0419 6.85058 11.042C6.94539 11.042 7.03632 11.0797 7.10336 11.1467C7.1704 11.2137 7.20807 11.3047 7.20807 11.3995V11.9503C7.20807 12.0452 7.17043 12.1362 7.10341 12.2034C7.03639 12.2705 6.94547 12.3084 6.85058 12.3086Z" fill="#98431E"/>
<path d="M6.85058 7.86807C6.75555 7.86807 6.66441 7.83031 6.59721 7.76311C6.53001 7.69592 6.49226 7.60478 6.49226 7.50975V6.86894C6.49226 6.77391 6.53001 6.68276 6.59721 6.61557C6.66441 6.54837 6.75555 6.51062 6.85058 6.51062C6.94547 6.51084 7.03639 6.54869 7.10341 6.61586C7.17043 6.68303 7.20807 6.77406 7.20807 6.86894V7.50975C7.20807 7.60463 7.17043 7.69565 7.10341 7.76282C7.03639 7.82999 6.94547 7.86785 6.85058 7.86807Z" fill="#98431E"/>
<path d="M8.12133 11.9687C8.05835 11.9688 7.99645 11.9523 7.94188 11.9208C7.88732 11.8894 7.842 11.8441 7.81051 11.7896L7.54385 11.3262C7.49645 11.2441 7.48361 11.1466 7.50815 11.055C7.53268 10.9634 7.59258 10.8853 7.67468 10.8379C7.71537 10.8143 7.76032 10.799 7.80695 10.7928C7.85358 10.7866 7.90097 10.7897 7.94641 10.8018C7.99185 10.814 8.03444 10.835 8.07175 10.8636C8.10906 10.8923 8.14036 10.928 8.16383 10.9688L8.43048 11.4312C8.47792 11.5135 8.4908 11.6112 8.46627 11.7029C8.44174 11.7946 8.38182 11.8728 8.29966 11.9204C8.24545 11.9518 8.18397 11.9684 8.12133 11.9687Z" fill="#98431E"/>
<path d="M5.90892 8.13554C5.84594 8.13563 5.78405 8.11911 5.72948 8.08766C5.67491 8.05621 5.6296 8.01092 5.59811 7.95638L5.26979 7.38891C5.22242 7.30657 5.20967 7.2088 5.23436 7.11708C5.25905 7.02535 5.31915 6.94719 5.40145 6.89976C5.48368 6.85232 5.58137 6.83944 5.67308 6.86397C5.76479 6.8885 5.84303 6.94843 5.89059 7.03058L6.21809 7.59889C6.26553 7.68112 6.27839 7.77882 6.25386 7.87054C6.22933 7.96225 6.16941 8.04048 6.08725 8.08805C6.03299 8.11921 5.9715 8.13559 5.90892 8.13554Z" fill="#98431E"/>
<path d="M9.05048 11.0379C8.98791 11.0379 8.92641 11.0215 8.87215 10.9904L8.40883 10.7229C8.32668 10.6753 8.26676 10.5971 8.24223 10.5054C8.2177 10.4137 8.23057 10.316 8.27801 10.2337C8.32544 10.1514 8.4036 10.0913 8.49533 10.0666C8.58705 10.0419 8.68482 10.0547 8.76716 10.1021L9.23048 10.3695C9.31263 10.4171 9.37255 10.4953 9.39708 10.5871C9.4216 10.6788 9.40874 10.7765 9.3613 10.8587C9.32981 10.9132 9.28449 10.9585 9.22993 10.99C9.17536 11.0214 9.11346 11.0379 9.05048 11.0379Z" fill="#98431E"/>
<path d="M5.21732 8.82554C5.15467 8.82538 5.09316 8.8087 5.03899 8.77721L4.47068 8.44972C4.38852 8.40216 4.32861 8.32393 4.30408 8.23221C4.27955 8.1405 4.29241 8.04281 4.33985 7.96058C4.36333 7.91982 4.39462 7.88409 4.43193 7.85544C4.46924 7.82679 4.51183 7.80579 4.55727 7.79363C4.60271 7.78148 4.6501 7.77841 4.69673 7.78461C4.74336 7.79081 4.78831 7.80614 4.829 7.82974L5.39732 8.15724C5.4793 8.20496 5.53908 8.28318 5.56359 8.37483C5.5881 8.46647 5.57536 8.5641 5.52814 8.64638C5.49665 8.70093 5.45134 8.74621 5.39677 8.77766C5.3422 8.80912 5.2803 8.82563 5.21732 8.82554Z" fill="#98431E"/>
<path d="M9.39214 9.76805H8.84049C8.74546 9.76805 8.65432 9.7303 8.58713 9.6631C8.51993 9.5959 8.48217 9.50477 8.48217 9.40974C8.48239 9.31485 8.52025 9.22391 8.58742 9.1569C8.6546 9.08988 8.74561 9.05225 8.84049 9.05225H9.39214C9.48703 9.05225 9.57804 9.08988 9.64521 9.1569C9.71238 9.22391 9.75024 9.31485 9.75046 9.40974C9.75046 9.50477 9.7127 9.5959 9.64551 9.6631C9.57831 9.7303 9.48717 9.76805 9.39214 9.76805Z" fill="#98431E"/>
<path d="M4.94899 9.76805H4.30901C4.21398 9.76805 4.12285 9.7303 4.05565 9.6631C3.98845 9.59591 3.95069 9.50477 3.95069 9.40974C3.95091 9.31485 3.98877 9.22392 4.05594 9.1569C4.12312 9.08988 4.21413 9.05225 4.30901 9.05225H4.94816C4.99518 9.05214 5.04175 9.06131 5.08522 9.07922C5.12869 9.09714 5.16819 9.12345 5.20148 9.15665C5.23476 9.18986 5.26116 9.22931 5.27918 9.27274C5.2972 9.31616 5.30647 9.36272 5.30647 9.40974C5.30658 9.45675 5.29742 9.50333 5.27951 9.5468C5.26159 9.59026 5.23527 9.62977 5.20207 9.66305C5.16886 9.69634 5.12941 9.72274 5.08598 9.74076C5.04256 9.75878 4.99601 9.76805 4.94899 9.76805Z" fill="#98431E"/>
<path d="M8.54883 8.78714C8.48595 8.78723 8.42414 8.77081 8.36959 8.73952C8.31504 8.70822 8.26967 8.66316 8.23801 8.60883C8.19064 8.52649 8.1779 8.42872 8.20258 8.337C8.22727 8.24527 8.28737 8.1671 8.36967 8.11967L8.86965 7.82968C8.95188 7.78224 9.04958 7.76938 9.14129 7.79391C9.233 7.81844 9.31123 7.87836 9.3588 7.96052C9.40624 8.04275 9.41911 8.14044 9.39458 8.23215C9.37005 8.32386 9.31013 8.40209 9.22797 8.44966L8.72799 8.73965C8.67352 8.77103 8.6117 8.78742 8.54883 8.78714Z" fill="#98431E"/>
<path d="M4.64984 11.038C4.58696 11.0381 4.52518 11.0216 4.47074 10.9901C4.4163 10.9587 4.37114 10.9134 4.33985 10.8589C4.29241 10.7766 4.27955 10.6789 4.30408 10.5872C4.32861 10.4955 4.38852 10.4173 4.47068 10.3697L5.00066 10.0639C5.08295 10.0167 5.18056 10.0039 5.27221 10.0284C5.36386 10.0529 5.44209 10.1127 5.48981 10.1947C5.53718 10.277 5.54992 10.3748 5.52523 10.4665C5.50054 10.5583 5.44044 10.6364 5.35814 10.6839L4.829 10.9897C4.7747 11.0216 4.71281 11.0383 4.64984 11.038Z" fill="#98431E"/>
<path d="M6.89224 11.7587H6.83474C6.42519 11.7491 6.02572 11.6297 5.67812 11.4129C5.33461 11.1999 5.05301 10.9005 4.86148 10.5446C4.68247 10.2095 4.5886 9.83543 4.58816 9.45547C4.58816 9.4363 4.58816 9.41714 4.58816 9.39797C4.59801 9.00639 4.70758 8.62379 4.90648 8.28634C5.10513 7.94935 5.38612 7.66836 5.72311 7.46972C6.06197 7.27066 6.44602 7.16138 6.8389 7.15222H6.8914C7.27183 7.15182 7.64639 7.24604 7.98136 7.42638C8.33699 7.61725 8.63616 7.89831 8.84882 8.24135C9.06589 8.59062 9.18505 8.99183 9.19381 9.40297C9.19381 9.41714 9.19381 9.4363 9.19381 9.45547C9.19389 9.85329 9.09082 10.2443 8.89466 10.5904C8.68959 10.9537 8.3894 11.2541 8.02636 11.4596C7.68048 11.6555 7.28976 11.7586 6.89224 11.7587ZM6.88307 7.8672H6.86057C6.58833 7.87311 6.32213 7.94856 6.08726 8.08636C5.85504 8.22331 5.66125 8.41681 5.52395 8.64884C5.38802 8.88214 5.31401 9.14633 5.30896 9.4163C5.30896 9.4313 5.30896 9.44213 5.30896 9.45297C5.30879 9.71468 5.3735 9.97235 5.49729 10.2029C5.62915 10.4489 5.82343 10.6558 6.0606 10.8029C6.30122 10.9522 6.57747 11.0342 6.86057 11.0404H6.89724C7.17149 11.0407 7.44111 10.9698 7.6797 10.8346C7.93025 10.6928 8.1374 10.4853 8.27885 10.2346C8.41393 9.99625 8.48485 9.72693 8.48467 9.45297V9.42131C8.4785 9.13652 8.39621 8.85858 8.24635 8.61634C8.09974 8.37979 7.89337 8.18607 7.64804 8.05469C7.41354 7.92947 7.1514 7.86501 6.88557 7.8672H6.88307Z" fill="#98431E"/>
<path d="M7.81386 8.09799C7.75126 8.09823 7.68972 8.08183 7.63554 8.05048C7.59477 8.02701 7.55904 7.99572 7.5304 7.95842C7.50175 7.92111 7.48074 7.87851 7.46859 7.83306C7.45644 7.78762 7.45337 7.74023 7.45957 7.6936C7.46576 7.64698 7.4811 7.60203 7.5047 7.56134L7.81053 7.03052C7.834 6.98976 7.86528 6.95403 7.90259 6.92538C7.9399 6.89674 7.9825 6.87573 8.02795 6.86358C8.07339 6.85143 8.12078 6.84836 8.16741 6.85456C8.21403 6.86075 8.25898 6.8761 8.29967 6.8997C8.34044 6.92318 8.37617 6.95446 8.40481 6.99177C8.43346 7.02908 8.45445 7.07168 8.46661 7.11712C8.47876 7.16256 8.48184 7.20995 8.47564 7.25658C8.46944 7.30321 8.4541 7.34816 8.4305 7.38885L8.12468 7.91883C8.09319 7.97337 8.04788 8.01865 7.99331 8.05011C7.93874 8.08156 7.87685 8.09808 7.81386 8.09799Z" fill="#98431E"/>
<path d="M5.57977 11.9688C5.5171 11.9687 5.45557 11.9521 5.40145 11.9205C5.31915 11.873 5.25905 11.7949 5.23436 11.7031C5.20967 11.6114 5.22242 11.5137 5.26979 11.4313L5.55978 10.9313C5.60735 10.8492 5.68558 10.7893 5.77729 10.7647C5.869 10.7402 5.96669 10.7531 6.04892 10.8005C6.13108 10.8481 6.191 10.9263 6.21553 11.018C6.24006 11.1097 6.22719 11.2074 6.17975 11.2897L5.89059 11.7896C5.8591 11.8442 5.81379 11.8895 5.75922 11.9209C5.70465 11.9524 5.64276 11.9689 5.57977 11.9688Z" fill="#98431E"/>
</svg>
