<svg width="17" height="20" viewBox="0 0 17 20" fill="none" xmlns="http://www.w3.org/2000/svg">
<g opacity="0.3">
<path opacity="0.3" d="M11.6387 4.10401C11.1831 4.10357 10.7463 3.92238 10.4242 3.60024C10.1021 3.2781 9.92089 2.84131 9.92045 2.38573V0H2.24241C1.64769 0 1.07732 0.23626 0.656789 0.656794C0.236255 1.07733 0 1.64768 0 2.24241V15.7602C0.000883163 16.3544 0.237526 16.9239 0.657964 17.3437C1.0784 17.7635 1.64826 17.9993 2.24241 17.9993H11.4596C12.0537 17.9993 12.6236 17.7635 13.044 17.3437C13.4644 16.9239 13.7011 16.3544 13.702 15.7602V4.10401H11.6387Z" fill="#FF3E4C"/>
</g>
<path d="M13.702 4.10401H11.6387C11.1831 4.10357 10.7463 3.92238 10.4242 3.60024C10.102 3.2781 9.92087 2.84131 9.92043 2.38573V0L13.702 4.10401Z" fill="#FF3E4C"/>
<path d="M10.8829 12.5695H2.2799C2.19703 12.5695 2.11754 12.5365 2.05894 12.4779C2.00034 12.4193 1.96741 12.3398 1.96741 12.257C1.96764 12.1742 2.00065 12.095 2.05923 12.0365C2.11781 11.9781 2.19717 11.9453 2.2799 11.9453H10.8829C10.9656 11.9453 11.0448 11.9781 11.1033 12.0366C11.1617 12.095 11.1946 12.1743 11.1946 12.257C11.1947 12.298 11.1867 12.3386 11.1711 12.3765C11.1555 12.4144 11.1325 12.4488 11.1036 12.4779C11.0746 12.5069 11.0402 12.5299 11.0024 12.5457C10.9645 12.5614 10.9239 12.5695 10.8829 12.5695Z" fill="#FF3E4C"/>
<path d="M10.8829 9.04956H2.2799C2.19717 9.04956 2.11781 9.01674 2.05923 8.95831C2.00065 8.89989 1.96764 8.82064 1.96741 8.7379C1.96741 8.65503 2.00034 8.57553 2.05894 8.51692C2.11754 8.45832 2.19703 8.42542 2.2799 8.42542H10.8829C10.9239 8.42541 10.9645 8.4335 11.0024 8.44922C11.0402 8.46493 11.0746 8.48796 11.1036 8.51698C11.1325 8.54601 11.1555 8.58047 11.1711 8.61838C11.1867 8.65629 11.1947 8.69691 11.1946 8.7379C11.1946 8.82056 11.1617 8.89983 11.1033 8.95827C11.0448 9.01672 10.9656 9.04956 10.8829 9.04956Z" fill="#FF3E4C"/>
<path d="M10.8829 10.8096H2.2799C2.19703 10.8096 2.11754 10.7766 2.05894 10.718C2.00034 10.6594 1.96741 10.58 1.96741 10.4971C1.96764 10.4143 2.00065 10.3351 2.05923 10.2766C2.11781 10.2182 2.19717 10.1854 2.2799 10.1854H10.8829C10.9656 10.1854 11.0448 10.2183 11.1033 10.2767C11.1617 10.3352 11.1946 10.4144 11.1946 10.4971C11.1947 10.5381 11.1867 10.5787 11.1711 10.6166C11.1555 10.6545 11.1325 10.689 11.1036 10.718C11.0746 10.747 11.0402 10.77 11.0024 10.7858C10.9645 10.8015 10.9239 10.8096 10.8829 10.8096Z" fill="#FF3E4C"/>
<path d="M7.4897 7.28979H2.2799C2.19717 7.28979 2.11781 7.25699 2.05923 7.19857C2.00065 7.14014 1.96764 7.06087 1.96741 6.97814C1.96741 6.89526 2.00034 6.81578 2.05894 6.75718C2.11754 6.69858 2.19703 6.66565 2.2799 6.66565H7.4897C7.57243 6.66587 7.6517 6.69888 7.71013 6.75746C7.76855 6.81604 7.80135 6.8954 7.80135 6.97814C7.80113 7.06073 7.76823 7.13986 7.70983 7.19826C7.65143 7.25666 7.57229 7.28957 7.4897 7.28979Z" fill="#FF3E4C"/>
<path d="M7.4897 5.5299H2.2799C2.19717 5.5299 2.11781 5.49708 2.05923 5.43866C2.00065 5.38024 1.96764 5.30098 1.96741 5.21825C1.96741 5.13537 2.00034 5.05587 2.05894 4.99727C2.11754 4.93867 2.19703 4.90576 2.2799 4.90576H7.4897C7.57243 4.90598 7.6517 4.939 7.71013 4.99758C7.76855 5.05615 7.80135 5.13552 7.80135 5.21825C7.80113 5.30084 7.76823 5.37998 7.70983 5.43837C7.65143 5.49677 7.57229 5.52968 7.4897 5.5299Z" fill="#FF3E4C"/>
<path d="M15.3277 14.2169H4.90813C4.16902 14.2169 3.56985 14.8161 3.56985 15.5552V18.6617C3.56985 19.4009 4.16902 20 4.90813 20H15.3277C16.0668 20 16.666 19.4009 16.666 18.6617V15.5552C16.666 14.8161 16.0668 14.2169 15.3277 14.2169Z" fill="#FF3E4C"/>
<path d="M7.90968 17.5077V18.3868H7.30387V15.8811H8.2855C8.58299 15.8811 8.81048 15.9553 8.96631 16.1028C9.04516 16.1802 9.10671 16.2735 9.14693 16.3765C9.18714 16.4795 9.2051 16.5898 9.19963 16.7002C9.20266 16.8459 9.1667 16.9898 9.09547 17.1169C9.02272 17.2412 8.91488 17.3412 8.78548 17.4044C8.6294 17.4781 8.45805 17.5138 8.2855 17.5085L7.90968 17.5077ZM8.58299 16.7002C8.58299 16.478 8.46133 16.3669 8.218 16.3669H7.90968V17.0194H8.218C8.46133 17.0216 8.58299 16.9152 8.58299 16.7002Z" fill="white"/>
<path d="M11.5937 17.7827C11.4894 17.9721 11.3318 18.1269 11.1404 18.2277C10.9251 18.3379 10.6856 18.3926 10.4438 18.3868H9.49796V15.8811H10.4438C10.6858 15.875 10.9256 15.9285 11.1421 16.0369C11.3329 16.1355 11.4901 16.2887 11.5937 16.4769C11.7021 16.6767 11.7567 16.9013 11.752 17.1285C11.7566 17.3566 11.702 17.5819 11.5937 17.7827ZM10.9421 17.6568C11.0098 17.5873 11.0623 17.5044 11.0962 17.4134C11.13 17.3225 11.1445 17.2254 11.1387 17.1285C11.1446 17.0318 11.1301 16.9348 11.0962 16.844C11.0623 16.7531 11.0098 16.6704 10.9421 16.601C10.7905 16.4681 10.5925 16.4004 10.3913 16.4127H10.1038V17.8443H10.3913C10.5924 17.8565 10.7902 17.7892 10.9421 17.6568Z" fill="white"/>
<path d="M13.7295 15.8811V16.3636H12.702V16.9127H13.4953V17.3735H12.702V18.3868H12.0954V15.8811H13.7295Z" fill="white"/>
<path d="M10.7304 4.90552H9.25712C9.00031 4.90552 8.79214 5.1137 8.79214 5.3705V6.84378C8.79214 7.10058 9.00031 7.30876 9.25712 7.30876H10.7304C10.9872 7.30876 11.1954 7.10058 11.1954 6.84378V5.3705C11.1954 5.1137 10.9872 4.90552 10.7304 4.90552Z" fill="#FF3E4C"/>
</svg>
