<svg width="17" height="20" viewBox="0 0 17 20" fill="none" xmlns="http://www.w3.org/2000/svg">
<g opacity="0.3">
<path opacity="0.3" d="M11.6387 4.10401C11.1831 4.10334 10.7463 3.92199 10.4242 3.59971C10.102 3.27744 9.92088 2.84056 9.92044 2.38491V1.54845e-07H2.24325C1.9487 -0.000109302 1.65701 0.0578117 1.38485 0.170455C1.1127 0.283097 0.865394 0.448251 0.657079 0.656489C0.448763 0.864727 0.283514 1.11196 0.17077 1.38408C0.0580258 1.6562 -2.03376e-08 1.94787 0 2.24242V15.7602C-2.03376e-08 16.0548 0.0580258 16.3464 0.17077 16.6185C0.283514 16.8907 0.448763 17.1379 0.657079 17.3461C0.865394 17.5544 1.1127 17.7195 1.38485 17.8322C1.65701 17.9448 1.9487 18.0027 2.24325 18.0026H11.4596C12.0543 18.0026 12.6246 17.7664 13.0452 17.3458C13.4657 16.9253 13.702 16.3549 13.702 15.7602V4.10401H11.6387Z" fill="#A140FF"/>
</g>
<path d="M13.7019 4.10401H11.6387C11.183 4.10334 10.7463 3.92199 10.4241 3.59971C10.102 3.27744 9.92087 2.84056 9.92043 2.38491V0L13.7019 4.10401Z" fill="#A140FF"/>
<path d="M15.3286 14.2169H4.90898C4.16987 14.2169 3.5707 14.8161 3.5707 15.5552V18.6617C3.5707 19.4009 4.16987 20 4.90898 20H15.3286C16.0677 20 16.6669 19.4009 16.6669 18.6617V15.5552C16.6669 14.8161 16.0677 14.2169 15.3286 14.2169Z" fill="#A140FF"/>
<path d="M8.42802 18.3868L7.88555 17.4401H7.74721V18.3868H7.1414V15.881H8.17637C8.34869 15.8763 8.51978 15.9114 8.67635 15.9835C8.80486 16.0446 8.91221 16.1427 8.98466 16.2652C9.05443 16.3904 9.08979 16.5319 9.08716 16.6752C9.09203 16.8427 9.03874 17.0067 8.93634 17.1393C8.82476 17.274 8.67033 17.3664 8.49885 17.401L9.09467 18.3868H8.42802ZM7.74721 17.026H8.12303C8.21903 17.0332 8.31416 17.0034 8.38886 16.9427C8.41846 16.9114 8.44116 16.8742 8.45551 16.8336C8.46986 16.793 8.47555 16.7498 8.47219 16.7068C8.47496 16.6642 8.46899 16.6214 8.45467 16.5812C8.44034 16.5409 8.41795 16.504 8.38886 16.4727C8.31518 16.4113 8.22028 16.3813 8.1247 16.3894H7.74888L7.74721 17.026Z" fill="white"/>
<path d="M10.9479 17.9292H10.0088L9.85212 18.3867H9.21465L10.1313 15.8984H10.8287L11.7454 18.3867H11.1004L10.9479 17.9292ZM10.7921 17.4684L10.4796 16.5467L10.1646 17.4684H10.7921Z" fill="white"/>
<path d="M13.2695 18.3868L12.727 17.4401H12.5887V18.3868H11.9828V15.881H13.0178C13.1901 15.8763 13.3612 15.9114 13.5178 15.9835C13.6463 16.0446 13.7537 16.1427 13.8261 16.2652C13.8959 16.3904 13.9313 16.5319 13.9286 16.6752C13.9335 16.8427 13.8802 17.0067 13.7778 17.1393C13.6662 17.274 13.5118 17.3664 13.3403 17.401L13.9361 18.3868H13.2695ZM12.5887 17.026H12.9645C13.0605 17.033 13.1555 17.0032 13.2303 16.9427C13.2599 16.9114 13.2826 16.8742 13.297 16.8336C13.3113 16.793 13.317 16.7498 13.3136 16.7068C13.3164 16.6642 13.3104 16.6214 13.2961 16.5812C13.2818 16.5409 13.2594 16.504 13.2303 16.4727C13.1566 16.4113 13.0617 16.3813 12.9661 16.3894H12.5903L12.5887 17.026Z" fill="white"/>
<path d="M7.91385 12.5695H2.70406C2.62132 12.5692 2.54206 12.5362 2.48364 12.4776C2.42521 12.4191 2.3924 12.3397 2.3924 12.257C2.3924 12.1743 2.42524 12.095 2.48369 12.0366C2.54213 11.9782 2.6214 11.9453 2.70406 11.9453H7.91385C7.95485 11.9452 7.99547 11.9532 8.03338 11.9688C8.07128 11.9844 8.10573 12.0074 8.13476 12.0363C8.16379 12.0653 8.18682 12.0996 8.20254 12.1375C8.21825 12.1754 8.22634 12.216 8.22634 12.257C8.22634 12.3398 8.19342 12.4193 8.13481 12.4779C8.07621 12.5365 7.99673 12.5695 7.91385 12.5695Z" fill="#A140FF"/>
<path d="M7.91385 10.7288H2.70406C2.62132 10.7285 2.54206 10.6955 2.48364 10.6369C2.42521 10.5784 2.3924 10.499 2.3924 10.4163C2.39262 10.3337 2.42553 10.2545 2.48393 10.1961C2.54233 10.1377 2.62147 10.1048 2.70406 10.1046H7.91385C7.99659 10.1046 8.07595 10.1374 8.13453 10.1958C8.19311 10.2543 8.22612 10.3335 8.22634 10.4163C8.22634 10.4991 8.19342 10.5786 8.13481 10.6372C8.07621 10.6958 7.99673 10.7288 7.91385 10.7288Z" fill="#A140FF"/>
<path d="M7.91385 8.88794H2.70406C2.6214 8.88794 2.54213 8.8551 2.48369 8.79665C2.42524 8.7382 2.3924 8.65894 2.3924 8.57628C2.3924 8.49355 2.42521 8.41419 2.48364 8.35561C2.54206 8.29703 2.62132 8.26401 2.70406 8.26379H7.91385C7.99673 8.26379 8.07621 8.29671 8.13481 8.35531C8.19342 8.41392 8.22634 8.4934 8.22634 8.57628C8.22634 8.61728 8.21825 8.65787 8.20254 8.69573C8.18682 8.7336 8.16379 8.76799 8.13476 8.79695C8.10573 8.8259 8.07128 8.84883 8.03338 8.86445C7.99547 8.88006 7.95485 8.88805 7.91385 8.88794Z" fill="#A140FF"/>
<path d="M7.91385 7.04726H2.70406C2.6214 7.04726 2.54213 7.01443 2.48369 6.95598C2.42524 6.89754 2.3924 6.81826 2.3924 6.7356C2.3924 6.65295 2.42524 6.57368 2.48369 6.51524C2.54213 6.45679 2.6214 6.42395 2.70406 6.42395H7.91385C7.95485 6.42384 7.99547 6.43183 8.03338 6.44744C8.07128 6.46305 8.10573 6.48599 8.13476 6.51494C8.16379 6.54389 8.18682 6.57829 8.20254 6.61615C8.21825 6.65402 8.22634 6.69461 8.22634 6.7356C8.22634 6.7766 8.21825 6.8172 8.20254 6.85507C8.18682 6.89293 8.16379 6.92733 8.13476 6.95628C8.10573 6.98523 8.07128 7.00817 8.03338 7.02378C7.99547 7.03939 7.95485 7.04737 7.91385 7.04726Z" fill="#A140FF"/>
<path d="M10.2504 12.7095C9.97004 12.7093 9.70119 12.5978 9.50293 12.3996C9.30466 12.2013 9.19318 11.9324 9.19296 11.6521V10.5946H11.307V11.6521C11.3068 11.9323 11.1955 12.201 10.9974 12.3993C10.7993 12.5975 10.5307 12.7091 10.2504 12.7095ZM9.73377 11.1354V11.6521C9.73399 11.789 9.7885 11.9203 9.88534 12.0171C9.98218 12.114 10.1135 12.1685 10.2504 12.1687C10.3874 12.1685 10.5187 12.114 10.6155 12.0171C10.7123 11.9203 10.7668 11.789 10.7671 11.6521V11.1354H9.73377Z" fill="#A140FF"/>
<path d="M9.19297 10.5955H10.2529V9.53549H9.19297V10.5955Z" fill="#A140FF"/>
<path d="M10.2496 9.53625H11.3095V8.4763H10.2496V9.53625Z" fill="#A140FF"/>
<path d="M9.19297 8.47717H10.2529V7.41722H9.19297V8.47717Z" fill="#A140FF"/>
<path d="M10.2496 7.41797H11.3095V6.35801H10.2496V7.41797Z" fill="#A140FF"/>
</svg>
