<svg width="17" height="22" viewBox="0 0 17 22" fill="none" xmlns="http://www.w3.org/2000/svg">
<g opacity="0.3">
<path opacity="0.3" d="M11.6387 5.05615C11.1831 5.05571 10.7463 4.87453 10.4242 4.55239C10.1021 4.23025 9.92088 3.79346 9.92044 3.33788V0.952149H2.24325C1.9487 0.952039 1.65701 1.00995 1.38485 1.12259C1.1127 1.23524 0.865394 1.4004 0.657079 1.60864C0.448763 1.81688 0.283514 2.06411 0.17077 2.33623C0.0580258 2.60835 -2.03376e-08 2.90001 0 3.19455V16.7124C-2.03376e-08 17.0069 0.0580258 17.2986 0.17077 17.5707C0.283514 17.8428 0.448763 18.0901 0.657079 18.2983C0.865394 18.5065 1.1127 18.6717 1.38485 18.7843C1.65701 18.897 1.9487 18.9549 2.24325 18.9548H11.4596C12.0543 18.9548 12.6246 18.7185 13.0452 18.298C13.4657 17.8775 13.702 17.3071 13.702 16.7124V5.05615H11.6387Z" fill="#0072FF"/>
</g>
<path d="M13.702 5.05615H11.6387C11.1831 5.05571 10.7463 4.87453 10.4242 4.55239C10.1021 4.23025 9.92087 3.79346 9.92043 3.33788V0.952148L13.702 5.05615Z" fill="#0072FF"/>
<path d="M10.8829 7.92944H2.27992C2.19727 7.92944 2.118 7.8966 2.05956 7.83815C2.00111 7.77971 1.96827 7.70044 1.96827 7.61779C1.96816 7.57679 1.97614 7.53617 1.99176 7.49826C2.00737 7.46036 2.03031 7.4259 2.05926 7.39687C2.08821 7.36784 2.1226 7.34481 2.16046 7.3291C2.19833 7.31339 2.23893 7.3053 2.27992 7.3053H10.8829C10.9658 7.3053 11.0453 7.33822 11.1039 7.39683C11.1625 7.45543 11.1954 7.53491 11.1954 7.61779C11.1952 7.70052 11.1622 7.77979 11.1036 7.83822C11.045 7.89664 10.9657 7.92944 10.8829 7.92944Z" fill="#0072FF"/>
<path d="M10.8829 9.79345H2.27992C2.19727 9.79345 2.118 9.76061 2.05956 9.70217C2.00111 9.64372 1.96827 9.56446 1.96827 9.4818C1.96816 9.4408 1.97614 9.40018 1.99176 9.36228C2.00737 9.32437 2.03031 9.28991 2.05926 9.26088C2.08821 9.23185 2.1226 9.20883 2.16046 9.19311C2.19833 9.1774 2.23893 9.16931 2.27992 9.16931H10.8829C10.9658 9.16931 11.0453 9.20222 11.1039 9.26082C11.1625 9.31942 11.1954 9.39892 11.1954 9.4818C11.1952 9.56453 11.1622 9.64379 11.1036 9.70221C11.045 9.76063 10.9657 9.79345 10.8829 9.79345Z" fill="#0072FF"/>
<path d="M10.8829 11.6576H2.27992C2.23893 11.6576 2.19833 11.6495 2.16046 11.6338C2.1226 11.6181 2.08821 11.595 2.05926 11.566C2.03031 11.537 2.00737 11.5025 1.99176 11.4646C1.97614 11.4267 1.96816 11.3861 1.96827 11.3451C1.96827 11.2624 2.00111 11.1832 2.05956 11.1247C2.118 11.0663 2.19727 11.0334 2.27992 11.0334H10.8829C10.9657 11.0334 11.045 11.0662 11.1036 11.1247C11.1622 11.1831 11.1952 11.2624 11.1954 11.3451C11.1954 11.428 11.1625 11.5075 11.1039 11.5661C11.0453 11.6247 10.9658 11.6576 10.8829 11.6576Z" fill="#0072FF"/>
<path d="M7.48805 13.5216H2.27992C2.23893 13.5216 2.19833 13.5135 2.16046 13.4978C2.1226 13.4821 2.08821 13.459 2.05926 13.43C2.03031 13.401 2.00737 13.3665 1.99176 13.3286C1.97614 13.2907 1.96816 13.2501 1.96827 13.2091C1.96827 13.1265 2.00111 13.0472 2.05956 12.9887C2.118 12.9303 2.19727 12.8975 2.27992 12.8975H7.48805C7.57071 12.8975 7.64998 12.9303 7.70842 12.9887C7.76687 13.0472 7.79971 13.1265 7.79971 13.2091C7.79982 13.2501 7.79183 13.2907 7.77622 13.3286C7.76061 13.3665 7.73767 13.401 7.70872 13.43C7.67977 13.459 7.64538 13.4821 7.60752 13.4978C7.56965 13.5135 7.52905 13.5216 7.48805 13.5216Z" fill="#0072FF"/>
<rect x="5.66699" y="15.0479" width="11" height="6" rx="1" fill="#006FEE"/>
<path d="M8.63858 19.0479H7.83212V16.866H8.63752C8.85982 16.866 9.05123 16.9097 9.21174 16.9971C9.37296 17.0837 9.49725 17.2087 9.58461 17.3721C9.67196 17.5347 9.71564 17.7293 9.71564 17.9559C9.71564 18.1831 9.67196 18.3785 9.58461 18.5418C9.49796 18.7052 9.37402 18.8305 9.2128 18.9179C9.05158 19.0045 8.86017 19.0479 8.63858 19.0479ZM8.35946 18.5983H8.61834C8.7405 18.5983 8.84384 18.5777 8.92836 18.5365C9.01358 18.4946 9.07786 18.4268 9.12118 18.333C9.16522 18.2385 9.18723 18.1128 9.18723 17.9559C9.18723 17.7989 9.16522 17.6739 9.12118 17.5809C9.07715 17.4871 9.01216 17.4197 8.92623 17.3785C8.841 17.3366 8.73588 17.3156 8.61088 17.3156H8.35946V18.5983ZM12.0828 17.9569C12.0828 18.197 12.0367 18.4005 11.9443 18.5674C11.852 18.7343 11.727 18.8611 11.5693 18.9477C11.4124 19.0344 11.2362 19.0777 11.0409 19.0777C10.8449 19.0777 10.6684 19.034 10.5115 18.9466C10.3545 18.8593 10.2298 18.7325 10.1375 18.5663C10.0459 18.3994 10.0001 18.1963 10.0001 17.9569C10.0001 17.7169 10.0459 17.5134 10.1375 17.3465C10.2298 17.1796 10.3545 17.0528 10.5115 16.9662C10.6684 16.8795 10.8449 16.8362 11.0409 16.8362C11.2362 16.8362 11.4124 16.8795 11.5693 16.9662C11.727 17.0528 11.852 17.1796 11.9443 17.3465C12.0367 17.5134 12.0828 17.7169 12.0828 17.9569ZM11.5438 17.9569C11.5438 17.8149 11.5235 17.6949 11.483 17.5969C11.4433 17.4988 11.3857 17.4246 11.3105 17.3742C11.2359 17.3238 11.146 17.2986 11.0409 17.2986C10.9365 17.2986 10.8467 17.3238 10.7714 17.3742C10.6961 17.4246 10.6382 17.4988 10.5977 17.5969C10.558 17.6949 10.5381 17.8149 10.5381 17.9569C10.5381 18.099 10.558 18.219 10.5977 18.317C10.6382 18.415 10.6961 18.4893 10.7714 18.5397C10.8467 18.5901 10.9365 18.6153 11.0409 18.6153C11.146 18.6153 11.2359 18.5901 11.3105 18.5397C11.3857 18.4893 11.4433 18.415 11.483 18.317C11.5235 18.219 11.5438 18.099 11.5438 17.9569ZM14.3712 17.6565H13.8385C13.8314 17.6018 13.8169 17.5525 13.7948 17.5084C13.7728 17.4644 13.7437 17.4268 13.7075 17.3955C13.6713 17.3643 13.6283 17.3405 13.5786 17.3241C13.5296 17.3071 13.4752 17.2986 13.4156 17.2986C13.3097 17.2986 13.2185 17.3245 13.1418 17.3763C13.0658 17.4282 13.0072 17.5031 12.966 17.6011C12.9255 17.6991 12.9053 17.8177 12.9053 17.9569C12.9053 18.1018 12.9259 18.2233 12.9671 18.3213C13.009 18.4186 13.0676 18.4921 13.1428 18.5418C13.2188 18.5908 13.3087 18.6153 13.4124 18.6153C13.4706 18.6153 13.5235 18.6079 13.5711 18.593C13.6194 18.578 13.6617 18.5564 13.6979 18.528C13.7348 18.4988 13.765 18.4637 13.7884 18.4225C13.8126 18.3806 13.8293 18.3334 13.8385 18.2808L14.3712 18.284C14.3619 18.3806 14.3339 18.4758 14.287 18.5695C14.2409 18.6633 14.1773 18.7488 14.0963 18.8263C14.0154 18.903 13.9166 18.964 13.8002 19.0095C13.6844 19.055 13.5516 19.0777 13.4017 19.0777C13.2043 19.0777 13.0274 19.0344 12.8712 18.9477C12.7156 18.8604 12.5928 18.7332 12.5026 18.5663C12.4124 18.3994 12.3673 18.1963 12.3673 17.9569C12.3673 17.7169 12.4131 17.5134 12.5047 17.3465C12.5963 17.1796 12.7203 17.0528 12.8765 16.9662C13.0328 16.8795 13.2078 16.8362 13.4017 16.8362C13.5338 16.8362 13.656 16.8547 13.7682 16.8916C13.8804 16.9278 13.9791 16.9811 14.0644 17.0514C14.1496 17.121 14.2188 17.2066 14.2721 17.3081C14.3254 17.4097 14.3584 17.5258 14.3712 17.6565Z" fill="white"/>
</svg>
