<svg width="20" height="16" viewBox="0 0 20 16" fill="none" xmlns="http://www.w3.org/2000/svg">
<path d="M1.43984 15.2C0.645703 15.2 0 14.5685 0 13.7918V1.40821C0 0.631519 0.645703 0 1.43984 0H5.84102C6.37539 0 6.90977 0.170583 7.34023 0.486342L8.90625 1.62235C9.21055 1.84374 9.58535 1.96351 9.96016 1.96351H17.5602C18.3543 1.96351 19 2.59503 19 3.37173V13.7882C19 14.5649 18.3543 15.1964 17.5602 15.1964H1.43984V15.2Z" fill="black"/>
<path d="M8.68359 1.91618L7.11758 0.776547C6.7502 0.50797 6.30117 0.362793 5.84102 0.362793H1.43984C0.849805 0.362793 0.371094 0.830988 0.371094 1.40807V13.788C0.371094 14.3651 0.849805 14.8333 1.43984 14.8333H17.5564C18.1465 14.8333 18.6252 14.3651 18.6252 13.788V3.37158C18.6252 2.7945 18.1465 2.32631 17.5564 2.32631H9.96016C9.5 2.32994 9.05098 2.18476 8.68359 1.91618Z" fill="url(#paint0_linear_3927_94238)"/>
<path d="M0.371094 2.57495H18.6289V5.47848H0.371094V2.57495Z" fill="url(#paint1_linear_3927_94238)"/>
<path d="M1.43984 3.6615H17.5564C18.3506 3.6615 18.9963 4.29302 18.9963 5.06971V13.7876C18.9963 14.5643 18.3506 15.1958 17.5564 15.1958H1.43984C0.645703 15.1994 0 14.5679 0 13.7912V5.06971C0 4.29302 0.645703 3.6615 1.43984 3.6615Z" fill="black"/>
<path d="M1.43984 4.02637H17.5564C18.1465 4.02637 18.6252 4.49456 18.6252 5.07164V13.7895C18.6252 14.3666 18.1465 14.8348 17.5564 14.8348H1.43984C0.849805 14.8348 0.371094 14.3666 0.371094 13.7895V5.07164C0.371094 4.49456 0.849805 4.02637 1.43984 4.02637Z" fill="url(#paint2_linear_3927_94238)"/>
<defs>
<linearGradient id="paint0_linear_3927_94238" x1="1.04686" y1="0.314158" x2="16.5925" y2="16.209" gradientUnits="userSpaceOnUse">
<stop stop-color="#F6C012"/>
<stop offset="0.86" stop-color="#FFA500"/>
</linearGradient>
<linearGradient id="paint1_linear_3927_94238" x1="9.5" y1="5.47848" x2="9.5" y2="2.57495" gradientUnits="userSpaceOnUse">
<stop stop-opacity="0.25"/>
<stop offset="1" stop-opacity="0"/>
</linearGradient>
<linearGradient id="paint2_linear_3927_94238" x1="2.48484" y1="2.57133" x2="16.1999" y2="16.5945" gradientUnits="userSpaceOnUse">
<stop stop-color="#FFE69D"/>
<stop offset="1" stop-color="#FFC321"/>
</linearGradient>
</defs>
</svg>
