<svg width="17" height="20" viewBox="0 0 17 20" fill="none" xmlns="http://www.w3.org/2000/svg">
<g opacity="0.3">
<path opacity="0.3" d="M11.6387 4.10401C11.1831 4.10357 10.7463 3.92238 10.4242 3.60024C10.1021 3.2781 9.92089 2.84131 9.92045 2.38573V0H2.24241C1.64768 0 1.07733 0.23626 0.656794 0.656794C0.23626 1.07733 0 1.64768 0 2.24241V15.7602C0 16.3549 0.23626 16.9253 0.656794 17.3458C1.07733 17.7664 1.64768 18.0026 2.24241 18.0026H11.4587C11.7533 18.0027 12.0449 17.9448 12.3171 17.8322C12.5893 17.7195 12.8366 17.5544 13.0449 17.3461C13.2532 17.1379 13.4184 16.8907 13.5312 16.6186C13.6439 16.3464 13.702 16.0548 13.702 15.7602V4.10401H11.6387Z" fill="#29A19C"/>
</g>
<path d="M13.7019 4.10401H11.6387C11.1831 4.10357 10.7463 3.92238 10.4242 3.60024C10.102 3.2781 9.92087 2.84131 9.92043 2.38573V0L13.7019 4.10401Z" fill="#29A19C"/>
<path d="M15.3277 14.2169H4.90811C4.169 14.2169 3.56985 14.8161 3.56985 15.5552V18.6617C3.56985 19.4009 4.169 20 4.90811 20H15.3277C16.0668 20 16.666 19.4009 16.666 18.6617V15.5552C16.666 14.8161 16.0668 14.2169 15.3277 14.2169Z" fill="#29A19C"/>
<path d="M8.15467 17.5077V18.3868H7.54886V15.8811H8.53049C8.82826 15.8811 9.05491 15.955 9.21046 16.1028C9.28941 16.1802 9.3511 16.2735 9.39146 16.3764C9.43181 16.4794 9.44993 16.5898 9.44462 16.7002C9.44725 16.8459 9.41132 16.9896 9.34046 17.1169C9.2676 17.2414 9.15943 17.3414 9.02964 17.4044C8.87366 17.4785 8.70224 17.5142 8.52966 17.5085L8.15467 17.5077ZM8.82796 16.7002C8.82796 16.478 8.70631 16.3669 8.46299 16.3669H8.15467V17.0194H8.46299C8.70631 17.0216 8.82796 16.9152 8.82796 16.7002Z" fill="#F4FAFA"/>
<path d="M10.3488 17.5077V18.3868H9.74213V15.8811H10.7238C11.0221 15.8811 11.249 15.955 11.4046 16.1028C11.4835 16.1802 11.5452 16.2735 11.5856 16.3764C11.6259 16.4794 11.644 16.5898 11.6387 16.7002C11.6415 16.846 11.6052 16.9898 11.5337 17.1169C11.4614 17.2415 11.3535 17.3416 11.2237 17.4044C11.0678 17.4785 10.8963 17.5142 10.7238 17.5085L10.3488 17.5077ZM11.0221 16.7002C11.0221 16.478 10.9004 16.3669 10.6571 16.3669H10.3488V17.0194H10.6571C10.9004 17.0216 11.0221 16.9152 11.0221 16.7002Z" fill="#F4FAFA"/>
<path d="M13.737 15.8811V16.3636H13.0562V18.3868H12.447V16.3636H11.7729V15.8811H13.737Z" fill="#F4FAFA"/>
<path d="M6.22392 6.97729H2.58323C2.5005 6.97729 2.42114 6.94449 2.36256 6.88607C2.30398 6.82764 2.27096 6.74837 2.27074 6.66564C2.27074 6.58276 2.30367 6.50328 2.36227 6.44468C2.42088 6.38608 2.50036 6.35315 2.58323 6.35315H6.22058C6.30346 6.35315 6.38296 6.38608 6.44156 6.44468C6.50016 6.50328 6.53307 6.58276 6.53307 6.66564C6.53286 6.7478 6.5003 6.82656 6.44244 6.88489C6.38458 6.94322 6.30607 6.97641 6.22392 6.97729Z" fill="#29A19C"/>
<path d="M6.22392 8.8413H2.58323C2.5005 8.8413 2.42114 8.80848 2.36256 8.75006C2.30398 8.69164 2.27096 8.61238 2.27074 8.52965C2.27074 8.44677 2.30367 8.36727 2.36227 8.30867C2.42088 8.25007 2.50036 8.21716 2.58323 8.21716H6.22058C6.30346 8.21716 6.38296 8.25007 6.44156 8.30867C6.50016 8.36727 6.53307 8.44677 6.53307 8.52965C6.53286 8.61181 6.5003 8.69057 6.44244 8.7489C6.38458 8.80723 6.30607 8.84043 6.22392 8.8413Z" fill="#29A19C"/>
<path d="M6.22392 10.7054H2.58323C2.50036 10.7054 2.42088 10.6724 2.36227 10.6138C2.30367 10.5552 2.27074 10.4757 2.27074 10.3929C2.2714 10.3104 2.30462 10.2316 2.36315 10.1735C2.42168 10.1155 2.50079 10.0829 2.58323 10.0829H6.22058C6.30331 10.0829 6.38268 10.1157 6.44126 10.1741C6.49984 10.2325 6.53285 10.3118 6.53307 10.3945C6.53264 10.4766 6.49999 10.5551 6.44215 10.6133C6.38431 10.6714 6.30593 10.7045 6.22392 10.7054Z" fill="#29A19C"/>
<path d="M6.22392 12.5695H2.58323C2.50036 12.5695 2.42088 12.5365 2.36227 12.4779C2.30367 12.4193 2.27074 12.3398 2.27074 12.257C2.27096 12.1742 2.30398 12.095 2.36256 12.0365C2.42114 11.9781 2.5005 11.9453 2.58323 11.9453H6.22058C6.30331 11.9453 6.38268 11.9781 6.44126 12.0365C6.49984 12.095 6.53285 12.1742 6.53307 12.257C6.53307 12.3393 6.50063 12.4182 6.44274 12.4767C6.38486 12.5353 6.30622 12.5686 6.22392 12.5695Z" fill="#29A19C"/>
<path d="M9.77045 9.83288V7.06299C9.09564 7.09862 8.46021 7.39175 7.99511 7.88197C7.53 8.37218 7.27067 9.02213 7.27055 9.69787C7.27044 10.0444 7.3386 10.3875 7.47114 10.7076C7.60369 11.0278 7.79801 11.3186 8.04302 11.5636C8.28802 11.8087 8.57891 12.003 8.89904 12.1355C9.21918 12.2681 9.56228 12.3362 9.90877 12.3361C10.5845 12.3362 11.2345 12.0769 11.7246 11.6117C12.2147 11.1466 12.5076 10.511 12.5428 9.83622L9.77045 9.83288Z" fill="#29A19C"/>
<path d="M10.2754 6.85229V9.3522H12.7753C12.742 8.69999 12.4678 8.08336 12.0061 7.62157C11.5443 7.15979 10.9276 6.88568 10.2754 6.85229Z" fill="#29A19C"/>
</svg>
