<svg width="17" height="20" viewBox="0 0 17 20" fill="none" xmlns="http://www.w3.org/2000/svg">
<g opacity="0.3">
<path opacity="0.3" d="M11.6393 4.09659C11.1837 4.09615 10.7469 3.91497 10.4247 3.5928C10.1025 3.27064 9.92135 2.83382 9.92091 2.37822V-0.00683594H2.24335C1.64838 -0.00683594 1.07777 0.229516 0.657059 0.650232C0.236349 1.07095 0 1.64157 0 2.23655V15.7544C0 16.3493 0.236349 16.9199 0.657059 17.3407C1.07777 17.7614 1.64838 17.9977 2.24335 17.9977H11.4601C11.7547 17.9977 12.0463 17.9397 12.3185 17.8269C12.5906 17.7142 12.8378 17.5489 13.0461 17.3406C13.2543 17.1323 13.4195 16.885 13.5321 16.6128C13.6448 16.3406 13.7027 16.0489 13.7026 15.7544V4.09742L11.6393 4.09659Z" fill="#4F4F55"/>
</g>
<path d="M13.7025 4.09659H11.6392C11.1836 4.09615 10.7468 3.91497 10.4246 3.5928C10.1025 3.27064 9.92127 2.83382 9.92083 2.37822V-0.00683594L13.7025 4.09659Z" fill="#4F4F55"/>
<path d="M10.2527 10.6369H10.0452C10.0441 9.79592 9.70945 8.9897 9.1147 8.3951C8.51995 7.80049 7.71365 7.46608 6.87266 7.46519C6.03174 7.46608 5.22553 7.80052 4.63091 8.39515C4.0363 8.98977 3.70186 9.796 3.70097 10.6369H3.49264C3.49374 9.74089 3.85022 8.88188 4.48389 8.24836C5.11755 7.61485 5.97664 7.25857 6.87266 7.25769C7.76868 7.25857 8.62777 7.61485 9.26143 8.24836C9.89509 8.88188 10.2516 9.74089 10.2527 10.6369Z" fill="#4F4F55"/>
<path d="M11.6751 7.25769H2.07002V7.46519H11.6751V7.25769Z" fill="#4F4F55"/>
<path d="M3.92853 10.3064H3.26435V10.9706H3.92853V10.3064Z" fill="#4F4F55"/>
<path d="M10.48 10.3064H9.81584V10.9706H10.48V10.3064Z" fill="#4F4F55"/>
<path d="M7.20427 7.01843H6.5401V7.68261H7.20427V7.01843Z" fill="#4F4F55"/>
<path d="M2.05908 7.68345C2.24272 7.68345 2.39159 7.53458 2.39159 7.35094C2.39159 7.1673 2.24272 7.01843 2.05908 7.01843C1.87544 7.01843 1.72658 7.1673 1.72658 7.35094C1.72658 7.53458 1.87544 7.68345 2.05908 7.68345Z" fill="#4F4F55"/>
<path d="M11.6434 7.68345C11.827 7.68345 11.9759 7.53458 11.9759 7.35094C11.9759 7.1673 11.827 7.01843 11.6434 7.01843C11.4597 7.01843 11.3109 7.1673 11.3109 7.35094C11.3109 7.53458 11.4597 7.68345 11.6434 7.68345Z" fill="#4F4F55"/>
<rect x="5.66699" y="14.0068" width="10.5" height="6" rx="1" fill="#4F4F55"/>
<path d="M7.83212 18.0068V15.825H9.32147V16.2533H8.35946V16.7007H9.22665V17.1301H8.35946V18.0068H7.83212ZM10.1143 15.825V18.0068H9.587V15.825H10.1143ZM10.4454 18.0068V15.825H10.9727V17.5786H11.8804V18.0068H10.4454ZM12.1534 18.0068V15.825H13.6747V16.2533H12.6808V16.7007H13.5969V17.1301H12.6808V17.5786H13.6747V18.0068H12.1534Z" fill="#FDF7F4"/>
</svg>
