<svg width="19" height="22" viewBox="0 0 19 22" fill="none" xmlns="http://www.w3.org/2000/svg">
<g opacity="0.3">
<path opacity="0.3" d="M11.6392 5.09064C11.1835 5.09042 10.7466 4.90932 10.4244 4.58711C10.1022 4.26491 9.92105 3.82797 9.92083 3.37231V0.987305H2.24251C1.94795 0.987305 1.65628 1.04533 1.38415 1.15808C1.11203 1.27083 0.86476 1.43609 0.656514 1.64441C0.448268 1.85273 0.283118 2.10005 0.170471 2.37221C0.0578241 2.64438 -0.000109306 2.93609 1.54824e-07 3.23065V16.7482C-0.000109306 17.0427 0.0578241 17.3344 0.170471 17.6066C0.283118 17.8788 0.448268 18.1261 0.656514 18.3344C0.86476 18.5427 1.11203 18.708 1.38415 18.8207C1.65628 18.9335 1.94795 18.9915 2.24251 18.9915H11.4592C11.7537 18.9915 12.0454 18.9335 12.3175 18.8207C12.5896 18.708 12.8369 18.5427 13.0451 18.3344C13.2534 18.1261 13.4185 17.8788 13.5312 17.6066C13.6438 17.3344 13.7018 17.0427 13.7017 16.7482V5.09148L11.6392 5.09064Z" fill="#D9602B"/>
</g>
<path d="M13.7017 5.09064H11.6392C11.1835 5.09042 10.7466 4.90932 10.4244 4.58711C10.1022 4.26491 9.92107 3.82797 9.92085 3.37231V0.987305L13.7017 5.09064Z" fill="#D9602B"/>
<path d="M8.69164 13.1881H5.01082C4.65048 13.1877 4.30503 13.0443 4.05023 12.7895C3.79543 12.5347 3.65209 12.1893 3.65165 11.8289V8.14811C3.65209 7.78778 3.79543 7.44232 4.05023 7.18752C4.30503 6.93272 4.65048 6.78938 5.01082 6.78894H8.69164C9.0519 6.78938 9.39726 6.93275 9.65193 7.18757C9.90659 7.44239 10.0498 7.78785 10.05 8.14811V11.8289C10.0498 12.1892 9.90659 12.5347 9.65193 12.7895C9.39726 13.0443 9.0519 13.1877 8.69164 13.1881ZM5.01082 7.38977C4.80977 7.38999 4.617 7.46997 4.47483 7.61213C4.33266 7.7543 4.2527 7.94706 4.25248 8.14811V11.8289C4.2527 12.03 4.33266 12.2228 4.47483 12.3649C4.617 12.5071 4.80977 12.5871 5.01082 12.5873H8.69164C8.89262 12.5871 9.08529 12.5071 9.22733 12.3649C9.36936 12.2227 9.44915 12.0299 9.44915 11.8289V8.14811C9.44915 7.94714 9.36936 7.75438 9.22733 7.61218C9.08529 7.46999 8.89262 7.38999 8.69164 7.38977H5.01082Z" fill="#D9602B"/>
<path d="M9.74999 11.1289V11.8289C9.74977 12.1096 9.6382 12.3786 9.43977 12.577C9.24135 12.7755 8.97229 12.8871 8.69167 12.8873H5.01084C4.73016 12.8873 4.46097 12.7758 4.26249 12.5773C4.06402 12.3788 3.95251 12.1096 3.95251 11.8289V10.6539C4.54168 10.5273 5.43917 10.4873 6.52834 10.9223L7.20335 10.2789L7.66333 11.4456C7.66333 11.4456 7.78666 11.0164 8.18499 11.0773C8.58333 11.1381 9.22833 11.3539 9.50417 11.1698C9.57848 11.1269 9.66581 11.1124 9.74999 11.1289Z" fill="#D9602B"/>
<path d="M8.46083 8.89987C8.6868 8.89987 8.87 8.71669 8.87 8.49071C8.87 8.26474 8.6868 8.08154 8.46083 8.08154C8.23485 8.08154 8.05167 8.26474 8.05167 8.49071C8.05167 8.71669 8.23485 8.89987 8.46083 8.89987Z" fill="#D9602B"/>
<rect x="6.66699" y="15.0127" width="11.5" height="6" rx="1" fill="#D9602B"/>
<path d="M10.3595 16.8309V19.0127H9.83212V16.8309H10.3595ZM10.6905 16.8309H11.3436L11.8975 18.1817H11.9231L12.4771 16.8309H13.1301V19.0127H12.6167V17.6725H12.5985L12.0744 18.9988H11.7463L11.2221 17.665H11.204V19.0127H10.6905V16.8309ZM14.8909 17.5436C14.8788 17.4988 14.8611 17.4594 14.8376 17.4253C14.8142 17.3905 14.7854 17.3611 14.7513 17.3369C14.7172 17.3128 14.6782 17.2947 14.6341 17.2826C14.5901 17.2698 14.5418 17.2634 14.4893 17.2634C14.3834 17.2634 14.2918 17.289 14.2144 17.3401C14.1377 17.3912 14.0784 17.4658 14.0365 17.5638C13.9946 17.6611 13.9736 17.7794 13.9736 17.9186C13.9736 18.0585 13.9939 18.1778 14.0344 18.2765C14.0748 18.3753 14.1334 18.4506 14.2101 18.5024C14.2868 18.5542 14.3799 18.5802 14.4893 18.5802C14.5858 18.5802 14.6675 18.5645 14.7343 18.5333C14.8018 18.5013 14.8529 18.4562 14.8877 18.398C14.9225 18.3398 14.9399 18.2712 14.9399 18.1924L15.0379 18.2041H14.5074V17.8195H15.4481V18.1082C15.4481 18.3035 15.4065 18.4708 15.3234 18.61C15.241 18.7492 15.1274 18.8561 14.9825 18.9307C14.8383 19.0052 14.6725 19.0425 14.485 19.0425C14.2769 19.0425 14.094 18.9974 13.9363 18.9072C13.7787 18.817 13.6558 18.6885 13.5677 18.5216C13.4797 18.354 13.4356 18.1551 13.4356 17.925C13.4356 17.746 13.4623 17.5873 13.5155 17.4488C13.5688 17.3096 13.643 17.1917 13.7382 17.0951C13.8341 16.9985 13.9449 16.9253 14.0706 16.8756C14.197 16.8259 14.333 16.801 14.4786 16.801C14.605 16.801 14.7226 16.8192 14.8312 16.8554C14.9406 16.8916 15.0372 16.9427 15.121 17.0088C15.2055 17.0748 15.2741 17.1533 15.3266 17.2442C15.3792 17.3351 15.4118 17.4349 15.4246 17.5436H14.8909Z" fill="#FDF7F4"/>
</svg>
