<svg width="17" height="20" viewBox="0 0 17 20" fill="none" xmlns="http://www.w3.org/2000/svg">
<g opacity="0.3">
<path opacity="0.3" d="M11.6391 4.10322C11.1836 4.10278 10.7467 3.9216 10.4246 3.59944C10.1024 3.27729 9.92127 2.84048 9.92083 2.38488V-0.00012207H2.24249C1.64789 -0.000122111 1.07763 0.236028 0.657104 0.656398C0.236578 1.07677 0.00022096 1.64695 0 2.24155V15.7599C0.000662558 16.3542 0.237216 16.924 0.657694 17.344C1.07817 17.764 1.64818 17.9999 2.24249 17.9999H11.4592C11.7537 18 12.0454 17.9421 12.3176 17.8294C12.5897 17.7168 12.8371 17.5516 13.0454 17.3434C13.2537 17.1351 13.419 16.8879 13.5317 16.6158C13.6445 16.3436 13.7025 16.052 13.7025 15.7574V4.10322H11.6391Z" fill="#A140FF"/>
</g>
<path d="M13.7025 4.10322H11.6392C11.1836 4.10278 10.7468 3.9216 10.4246 3.59944C10.1025 3.27729 9.92129 2.84048 9.92085 2.38488V-0.00012207L13.7025 4.10322Z" fill="#A140FF"/>
<path d="M15.3283 14.2166H4.90834C4.1692 14.2166 3.57002 14.8158 3.57002 15.5549V18.6616C3.57002 19.4007 4.1692 19.9999 4.90834 19.9999H15.3283C16.0675 19.9999 16.6667 19.4007 16.6667 18.6616V15.5549C16.6667 14.8158 16.0675 14.2166 15.3283 14.2166Z" fill="#A140FF"/>
<path d="M9.68248 15.899V18.3866H9.07665V16.8332L8.53749 18.3891H8.01332L7.47082 16.8299V18.3891H6.86498V15.9016H7.60583L8.28248 17.6341L8.94915 15.9016L9.68248 15.899Z" fill="white"/>
<path d="M10.7067 17.5082V18.3866H10.1008V15.8807H11.0833C11.3808 15.8807 11.6083 15.9549 11.7642 16.1024C11.843 16.1799 11.9046 16.2732 11.9448 16.3762C11.985 16.4792 12.003 16.5895 11.9975 16.6999C12.0004 16.8456 11.9644 16.9894 11.8933 17.1166C11.8205 17.2406 11.7127 17.3403 11.5833 17.4032C11.4273 17.4773 11.256 17.5133 11.0833 17.5082H10.7067ZM11.38 16.6999C11.38 16.4777 11.2583 16.3666 11.015 16.3666H10.7067V17.0191H11.015C11.2583 17.0213 11.38 16.9149 11.38 16.6999Z" fill="white"/>
<path d="M12.2416 17.9257V17.4166L13.3866 15.8466H14.0383V17.3957H14.34V17.9232H14.0383V18.3841H13.425V17.9232L12.2416 17.9257ZM13.475 16.5507L12.8583 17.3982H13.475V16.5507Z" fill="white"/>
<path d="M9.95333 10.9924V7.01659C9.95312 6.99729 9.95118 6.97804 9.94751 6.95909C9.94661 6.95342 9.94521 6.94785 9.94334 6.94242C9.94033 6.92939 9.93642 6.91658 9.93166 6.90409C9.92951 6.89838 9.92702 6.89282 9.92417 6.88743C9.91907 6.87526 9.91294 6.86355 9.90584 6.85242L9.8975 6.83909C9.88701 6.824 9.87531 6.80978 9.86251 6.79659L9.85667 6.79159C9.84532 6.7809 9.83336 6.77089 9.82084 6.76159L9.80583 6.75243L9.7725 6.73409L9.755 6.72659C9.74196 6.72155 9.7286 6.71738 9.71501 6.71409H9.70166C9.68276 6.71009 9.66348 6.70813 9.64416 6.70826H4.03085C3.9537 6.71532 3.88195 6.75093 3.8297 6.80812C3.77744 6.86531 3.74843 6.93996 3.74834 7.01743C3.74834 7.02243 3.74834 7.02659 3.74834 7.03159V11.0066C3.74633 11.0578 3.76257 11.108 3.79417 11.1483C3.82151 11.1944 3.8604 11.2327 3.90701 11.2593C3.95362 11.2859 4.00634 11.2999 4.06 11.2999H9.64333C9.72498 11.2995 9.80321 11.267 9.86118 11.2095C9.91916 11.152 9.95224 11.0741 9.95333 10.9924ZM4.08334 7.45659V6.85326H4.57416V7.45659H4.08334ZM4.91166 7.45659V6.85326H5.40251V7.45659H4.91166ZM5.73999 7.45659V6.85326H6.23084V7.45659H5.73999ZM6.56834 7.45659V6.85326H7.05916V7.45659H6.56834ZM7.39667 7.45659V6.85326H7.88749V7.45659H7.39667ZM8.225 7.45659V6.85326H8.71584V7.45659H8.225ZM9.05332 7.45659V6.85326H9.54417V7.45659H9.05332ZM3.96999 10.3824V7.61993H9.73917V10.3824H3.96999ZM4.0825 11.1483V10.5449H4.57333V11.1483H4.0825ZM4.91083 11.1483V10.5449H5.40167V11.1483H4.91083ZM5.73918 11.1483V10.5449H6.23V11.1483H5.73918ZM6.56751 11.1483V10.5449H7.05833V11.1483H6.56751ZM7.39583 11.1483V10.5449H7.88666V11.1483H7.39583ZM8.22416 11.1483V10.5449H8.71501V11.1483H8.22416ZM9.05249 11.1483V10.5449H9.54333V11.1483H9.05249Z" fill="#A140FF"/>
<path d="M7.51832 8.79656L6.72082 8.33572C6.67956 8.3121 6.63284 8.29971 6.5853 8.29981C6.53776 8.2999 6.49107 8.31247 6.44991 8.33625C6.40874 8.36004 6.37454 8.39421 6.35072 8.43536C6.3269 8.4765 6.31429 8.52318 6.31416 8.57072V9.49239C6.31429 9.53993 6.3269 9.58661 6.35072 9.62775C6.37454 9.6689 6.40874 9.70307 6.44991 9.72686C6.49107 9.75065 6.53776 9.76322 6.5853 9.76331C6.63284 9.7634 6.67956 9.75101 6.72082 9.72739L7.51832 9.26656C7.5595 9.24268 7.59367 9.2084 7.61743 9.16716C7.64118 9.12591 7.6537 9.07915 7.6537 9.03156C7.6537 8.98396 7.64118 8.9372 7.61743 8.89596C7.59367 8.85471 7.5595 8.82044 7.51832 8.79656Z" fill="#A140FF"/>
</svg>
