<svg width="17" height="20" viewBox="0 0 17 20" fill="none" xmlns="http://www.w3.org/2000/svg">
<g opacity="0.3">
<path opacity="0.3" d="M11.6392 4.10322C11.1836 4.10278 10.7468 3.9216 10.4246 3.59944C10.1025 3.27729 9.92129 2.84048 9.92085 2.38488V-0.00012207H2.2425C1.64775 -0.00012207 1.07737 0.23614 0.656816 0.656691C0.236265 1.07724 0 1.64763 0 2.24238V15.7607C0.000883199 16.3549 0.237535 16.9244 0.657991 17.3443C1.07845 17.7641 1.64833 17.9999 2.2425 17.9999H11.46C12.0543 17.9999 12.6244 17.764 13.0448 17.344C13.4653 16.924 13.7019 16.3542 13.7025 15.7599V4.10322H11.6392Z" fill="#FF3E4C"/>
</g>
<path d="M13.7025 4.10322H11.6392C11.1836 4.10278 10.7468 3.9216 10.4246 3.59944C10.1025 3.27729 9.92128 2.84048 9.92084 2.38488V-0.00012207L13.7025 4.10322Z" fill="#FF3E4C"/>
<path d="M15.3284 14.2166H4.90833C4.16919 14.2166 3.56999 14.8157 3.56999 15.5549V18.6615C3.56999 19.4007 4.16919 19.9999 4.90833 19.9999H15.3284C16.0675 19.9999 16.6667 19.4007 16.6667 18.6615V15.5549C16.6667 14.8157 16.0675 14.2166 15.3284 14.2166Z" fill="#FF3E4C"/>
<path d="M9.68837 15.8982V18.3865H9.08253V16.8332L8.54337 18.389H8.0192L7.47669 16.8299V18.389H6.86919V15.9007H7.61003L8.2867 17.634L8.95337 15.9007L9.68837 15.8982Z" fill="white"/>
<path d="M10.7125 17.5074V18.3866H10.1067V15.8807H11.0883C11.3858 15.8807 11.6133 15.9549 11.7692 16.1024C11.848 16.1798 11.9095 16.2729 11.9497 16.3758C11.9899 16.4786 12.0079 16.5888 12.0025 16.6991C12.0055 16.8448 11.9695 16.9886 11.8983 17.1157C11.8256 17.24 11.7177 17.34 11.5883 17.4032C11.4321 17.4766 11.2609 17.5123 11.0883 17.5074H10.7125ZM11.3858 16.6991C11.3858 16.4802 11.2642 16.3705 11.0208 16.3699H10.7125V17.0224H11.0208C11.2642 17.0224 11.3858 16.9146 11.3858 16.6991Z" fill="white"/>
<path d="M13.6117 15.8617C13.7294 15.9151 13.8289 16.0021 13.8975 16.1117C13.963 16.219 13.9968 16.3426 13.995 16.4683C14.0016 16.6103 13.9569 16.7499 13.8692 16.8617C13.7892 16.9585 13.6782 17.0247 13.555 17.0492V17.0675C13.8795 17.1708 14.0414 17.3728 14.0409 17.6733C14.0432 17.808 14.0089 17.9408 13.9417 18.0575C13.8734 18.1717 13.7728 18.2631 13.6525 18.32C13.5101 18.386 13.3544 18.4182 13.1975 18.4142C12.9092 18.4142 12.68 18.3434 12.5117 18.2017C12.3434 18.06 12.2508 17.8433 12.2367 17.5525H12.8283C12.8276 17.6481 12.8604 17.741 12.9208 17.815C12.9529 17.8485 12.9919 17.8744 13.0351 17.891C13.0783 17.9075 13.1247 17.9143 13.1708 17.9108C13.2089 17.9129 13.2469 17.907 13.2825 17.8935C13.318 17.88 13.3504 17.8592 13.3775 17.8325C13.4032 17.8058 13.4232 17.7741 13.4364 17.7395C13.4496 17.7048 13.4556 17.6679 13.4542 17.6308C13.4542 17.4247 13.3053 17.322 13.0075 17.3225H12.8942V16.83H13.0042C13.2708 16.8339 13.4042 16.7381 13.4042 16.5425C13.4066 16.5068 13.4018 16.4709 13.3899 16.437C13.378 16.4032 13.3593 16.3722 13.335 16.3458C13.3104 16.3223 13.2812 16.3039 13.2492 16.292C13.2173 16.2802 13.1832 16.2749 13.1492 16.2767C13.1115 16.2744 13.0737 16.2807 13.0388 16.2952C13.0038 16.3096 12.9726 16.3318 12.9475 16.36C12.8951 16.4263 12.8659 16.508 12.8642 16.5925H12.2717C12.2703 16.4793 12.2917 16.3669 12.3346 16.2621C12.3776 16.1573 12.4412 16.0622 12.5217 15.9825C12.675 15.8408 12.89 15.77 13.1667 15.77C13.32 15.7667 13.4721 15.7981 13.6117 15.8617Z" fill="white"/>
<path d="M10.0192 10.9931H9.10669V7.30481C9.10669 7.18126 9.05761 7.06277 8.97025 6.97541C8.88289 6.88805 8.76441 6.83897 8.64086 6.83897H6.30752C6.24635 6.83897 6.18577 6.85102 6.12925 6.87443C6.07274 6.89784 6.02138 6.93216 5.97813 6.97541C5.93487 7.01867 5.90056 7.07002 5.87715 7.12654C5.85374 7.18306 5.84169 7.24363 5.84169 7.30481V10.9931H4.92502V6.99314C4.92502 6.85278 4.95268 6.71378 5.00642 6.58411C5.06017 6.45444 5.13893 6.33663 5.23822 6.23742C5.33751 6.1382 5.45539 6.05953 5.5851 6.00589C5.71481 5.95225 5.85382 5.9247 5.99419 5.92481H8.95253C9.23587 5.92481 9.5076 6.03736 9.70796 6.23771C9.90831 6.43806 10.0209 6.7098 10.0209 6.99314L10.0192 10.9931Z" fill="#FF3E4C"/>
<path d="M8.93752 12.0748C9.53491 12.0748 10.0192 11.5906 10.0192 10.9932C10.0192 10.3958 9.53491 9.9115 8.93752 9.9115C8.34013 9.9115 7.85585 10.3958 7.85585 10.9932C7.85585 11.5906 8.34013 12.0748 8.93752 12.0748Z" fill="#FF3E4C"/>
<path d="M4.76503 12.0748C5.36242 12.0748 5.8467 11.5906 5.8467 10.9932C5.8467 10.3958 5.36242 9.9115 4.76503 9.9115C4.16764 9.9115 3.68336 10.3958 3.68336 10.9932C3.68336 11.5906 4.16764 12.0748 4.76503 12.0748Z" fill="#FF3E4C"/>
</svg>
