<svg width="14" height="19" viewBox="0 0 14 19" fill="none" xmlns="http://www.w3.org/2000/svg">
<path fill-rule="evenodd" clip-rule="evenodd" d="M0 2.5C0 1.83696 0.263392 1.20107 0.732233 0.732233C1.20107 0.263392 1.83696 0 2.5 0H10.8333C11.4964 0 12.1323 0.263392 12.6011 0.732233C13.0699 1.20107 13.3333 1.83696 13.3333 2.5V15.8333C13.3332 15.9903 13.2888 16.144 13.2052 16.2768C13.1215 16.4097 13.0021 16.5162 12.8606 16.5841C12.7191 16.652 12.5613 16.6786 12.4054 16.6608C12.2494 16.6429 12.1017 16.5814 11.9792 16.4833L10.4167 15.2333L8.85417 16.4833C8.69409 16.6116 8.49234 16.6763 8.28754 16.6651C8.08274 16.6538 7.88927 16.5675 7.74417 16.4225L6.66667 15.345L5.58917 16.4225C5.44417 16.5676 5.25076 16.6541 5.04595 16.6655C4.84115 16.6769 4.63934 16.6123 4.47917 16.4842L2.91667 15.2333L1.35417 16.4833C1.23164 16.5814 1.08391 16.6429 0.927967 16.6608C0.772027 16.6786 0.614223 16.652 0.472724 16.5841C0.331225 16.5162 0.211784 16.4097 0.128152 16.2768C0.0445201 16.144 9.80334e-05 15.9903 0 15.8333V2.5ZM2.5 1.66667C2.27899 1.66667 2.06702 1.75446 1.91074 1.91074C1.75446 2.06702 1.66667 2.27899 1.66667 2.5V14.1L2.39583 13.5167C2.54364 13.3983 2.72733 13.3339 2.91667 13.3339C3.106 13.3339 3.2897 13.3983 3.4375 13.5167L4.9375 14.7167L6.0775 13.5775C6.23377 13.4213 6.4457 13.3335 6.66667 13.3335C6.88764 13.3335 7.09956 13.4213 7.25583 13.5775L8.395 14.7167L9.89583 13.5167C10.0436 13.3983 10.2273 13.3339 10.4167 13.3339C10.606 13.3339 10.7897 13.3983 10.9375 13.5167L11.6667 14.1V2.5C11.6667 2.27899 11.5789 2.06702 11.4226 1.91074C11.2663 1.75446 11.0543 1.66667 10.8333 1.66667H2.5ZM3.33333 5.83333C3.33333 5.61232 3.42113 5.40036 3.57741 5.24408C3.73369 5.0878 3.94565 5 4.16667 5H9.16667C9.38768 5 9.59964 5.0878 9.75592 5.24408C9.9122 5.40036 10 5.61232 10 5.83333C10 6.05435 9.9122 6.26631 9.75592 6.42259C9.59964 6.57887 9.38768 6.66667 9.16667 6.66667H4.16667C3.94565 6.66667 3.73369 6.57887 3.57741 6.42259C3.42113 6.26631 3.33333 6.05435 3.33333 5.83333ZM4.16667 8.33333C3.94565 8.33333 3.73369 8.42113 3.57741 8.57741C3.42113 8.73369 3.33333 8.94565 3.33333 9.16667C3.33333 9.38768 3.42113 9.59964 3.57741 9.75592C3.73369 9.9122 3.94565 10 4.16667 10H6.66667C6.88768 10 7.09964 9.9122 7.25592 9.75592C7.4122 9.59964 7.5 9.38768 7.5 9.16667C7.5 8.94565 7.4122 8.73369 7.25592 8.57741C7.09964 8.42113 6.88768 8.33333 6.66667 8.33333H4.16667Z" fill="#47834A"/>
</svg>
