<svg width="20" height="20" viewBox="0 0 20 20" fill="none" xmlns="http://www.w3.org/2000/svg">
<g clip-path="url(#clip0_2017_2169)">
<path d="M5.83331 7.50004C5.83331 8.60511 6.2723 9.66492 7.0537 10.4463C7.8351 11.2277 8.89491 11.6667 9.99998 11.6667C11.105 11.6667 12.1649 11.2277 12.9463 10.4463C13.7277 9.66492 14.1666 8.60511 14.1666 7.50004C14.1666 6.39497 13.7277 5.33516 12.9463 4.55376C12.1649 3.77236 11.105 3.33337 9.99998 3.33337C8.89491 3.33337 7.8351 3.77236 7.0537 4.55376C6.2723 5.33516 5.83331 6.39497 5.83331 7.50004Z" stroke="#EF5350" stroke-width="1.5" stroke-linecap="round" stroke-linejoin="round"/>
<path d="M10 11.6666V17.5" stroke="#EF5350" stroke-width="1.5" stroke-linecap="round" stroke-linejoin="round"/>
<path d="M7.5 15H12.5" stroke="#EF5350" stroke-width="1.5" stroke-linecap="round" stroke-linejoin="round"/>
</g>
<defs>
<clipPath id="clip0_2017_2169">
<rect width="20" height="20" fill="white"/>
</clipPath>
</defs>
</svg>
