<svg width="21" height="20" viewBox="0 0 21 20" fill="none" xmlns="http://www.w3.org/2000/svg">
<g clip-path="url(#clip0_2916_17870)">
<path d="M11.815 13.979C11.8155 13.8672 11.7928 13.7565 11.7483 13.654C11.7038 13.5514 11.6386 13.4592 11.5567 13.3832L6.58334 8.79482L1.60834 13.3832C1.52657 13.4593 1.46148 13.5515 1.41716 13.6541C1.37284 13.7566 1.35026 13.8673 1.35084 13.979V18.454C1.35084 18.6675 1.43565 18.8722 1.58662 19.0232C1.73759 19.1742 1.94234 19.259 2.15584 19.259H11.0108C11.2243 19.259 11.4291 19.1742 11.5801 19.0232C11.731 18.8722 11.8158 18.6675 11.8158 18.454L11.815 13.979ZM14.6642 6.43815C15.0424 6.44462 15.4181 6.37572 15.7694 6.23546C16.1207 6.0952 16.4405 5.88639 16.7103 5.62122C16.98 5.35605 17.1943 5.03982 17.3405 4.69097C17.4867 4.34213 17.5621 3.96766 17.5621 3.5894C17.5621 3.21114 17.4867 2.83667 17.3405 2.48783C17.1943 2.13898 16.98 1.82275 16.7103 1.55758C16.4405 1.29241 16.1207 1.0836 15.7694 0.943346C15.4181 0.803087 15.0424 0.734182 14.6642 0.740651C13.9171 0.753429 13.2049 1.05918 12.6811 1.59204C12.1573 2.12489 11.8637 2.84219 11.8637 3.5894C11.8637 4.33661 12.1573 5.05391 12.6811 5.58677C13.2049 6.11962 13.9171 6.42537 14.6642 6.43815Z" stroke="#D9602B" stroke-width="1.5" stroke-linecap="round" stroke-linejoin="round"/>
<path d="M14.1858 19.2589H16.8008L17.5133 13.5606H19.65V11.4247C19.65 10.3447 19.2993 9.29394 18.6507 8.43042C18.002 7.56689 17.0906 6.93732 16.0533 6.63641C15.0161 6.33549 13.9092 6.3795 12.8992 6.76182C11.8891 7.14414 11.0305 7.84409 10.4525 8.75639M6.58248 13.0272V17.0556M8.59665 15.0414H4.56665" stroke="#D9602B" stroke-width="1.5" stroke-linecap="round" stroke-linejoin="round"/>
</g>
<defs>
<clipPath id="clip0_2916_17870">
<rect width="20" height="20" fill="white" transform="translate(0.5)"/>
</clipPath>
</defs>
</svg>
