<svg width="21" height="20" viewBox="0 0 21 20" fill="none" xmlns="http://www.w3.org/2000/svg">
<path fill-rule="evenodd" clip-rule="evenodd" d="M10.3333 0C11.2707 3.1287 13.1507 5.21989 14.7932 7.04736C16.4307 8.86986 17.8333 10.4312 17.8333 12.5C17.8333 14.4891 17.043 16.3967 15.6365 17.8032C14.23 19.2097 12.3224 20 10.3333 20C8.34413 20 6.43655 19.2097 5.03003 17.8032C3.62351 16.3967 2.83325 14.4891 2.83325 12.5C2.83325 7.1075 10.3333 0 10.3333 0ZM6.69702 7.65723C6.4977 7.65312 6.30474 7.72867 6.16089 7.8667C5.25675 8.73392 4.6909 9.89467 4.5647 11.1411C4.55488 11.2393 4.56454 11.3387 4.59302 11.4331C4.62152 11.5275 4.66827 11.6156 4.73071 11.6919C4.79318 11.7682 4.87037 11.8318 4.95728 11.8784C5.04402 11.9249 5.13915 11.9536 5.23706 11.9634L5.23853 11.9644C5.33662 11.9741 5.43565 11.964 5.53003 11.9355C5.62447 11.907 5.71247 11.8603 5.78882 11.7979C5.86508 11.7354 5.92825 11.6586 5.97485 11.5718C6.02148 11.4848 6.05099 11.3892 6.06079 11.291C6.15145 10.4004 6.55578 9.57086 7.2019 8.95117C7.3457 8.81317 7.42871 8.62357 7.43286 8.42432C7.43692 8.22506 7.36187 8.03199 7.22388 7.88818C7.08585 7.74441 6.89629 7.66134 6.69702 7.65723Z" fill="#29A19C"/>
</svg>
