<svg width="21" height="20" viewBox="0 0 21 20" fill="none" xmlns="http://www.w3.org/2000/svg">
<path fill-rule="evenodd" clip-rule="evenodd" d="M11.2347 0.529391C11.1514 0.386365 11.032 0.267692 10.8885 0.185212C10.7449 0.102731 10.5823 0.0593262 10.4167 0.0593262C10.2512 0.0593262 10.0886 0.102731 9.94503 0.185212C9.8015 0.267692 9.68211 0.386365 9.59876 0.529391L7.66646 3.84583L3.91263 4.66003C3.75092 4.69514 3.60124 4.77202 3.4785 4.883C3.35576 4.99399 3.26426 5.13521 3.21311 5.29258C3.16196 5.44995 3.15295 5.61798 3.18699 5.77992C3.22102 5.94186 3.2969 6.09205 3.40707 6.21553L5.96517 9.07847L5.57889 12.8986C5.5622 13.0633 5.58899 13.2295 5.65661 13.3807C5.72422 13.5318 5.83029 13.6626 5.96422 13.7599C6.09816 13.8572 6.25528 13.9178 6.41991 13.9354C6.58454 13.953 6.75092 13.9272 6.90244 13.8605L7.88895 13.4259L6.65345 18.7807C6.62139 18.9195 6.62108 19.0638 6.65254 19.2028C6.684 19.3417 6.74643 19.4718 6.83516 19.5833C6.92389 19.6948 7.03664 19.7848 7.16501 19.8466C7.29337 19.9085 7.43404 19.9405 7.57652 19.9404H13.257C13.3994 19.9404 13.5399 19.9082 13.6682 19.8463C13.7964 19.7844 13.9091 19.6944 13.9977 19.5829C14.0863 19.4715 14.1486 19.3414 14.1801 19.2025C14.2115 19.0636 14.2111 18.9194 14.1791 18.7807L12.9445 13.4269L13.9311 13.8624C14.0827 13.9292 14.2491 13.955 14.4138 13.9373C14.5786 13.9196 14.7358 13.859 14.8697 13.7616C15.0037 13.6641 15.1097 13.5332 15.1773 13.3819C15.2448 13.2307 15.2715 13.0643 15.2546 12.8995L14.8683 9.07942L17.4264 6.21647C17.5366 6.093 17.6125 5.94281 17.6465 5.78087C17.6805 5.61893 17.6715 5.4509 17.6204 5.29353C17.5692 5.13615 17.4777 4.99494 17.355 4.88395C17.2323 4.77296 17.0826 4.69608 16.9209 4.66097L13.167 3.84583L11.2347 0.529391ZM10.0532 12.4725L10.4167 12.3116L10.7803 12.4725L12.0669 18.047H8.76658L10.0532 12.4725Z" fill="#2A1F9C"/>
</svg>
