<svg width="21" height="20" viewBox="0 0 21 20" fill="none" xmlns="http://www.w3.org/2000/svg">
<path d="M3.3335 4.5C3.3335 3.67157 4.00507 3 4.8335 3H7.8335C8.66192 3 9.3335 3.67157 9.3335 4.5V7.5C9.3335 8.32843 8.66192 9 7.8335 9H4.8335C4.00507 9 3.3335 8.32843 3.3335 7.5V4.5Z" fill="#606068"/>
<path d="M11.3335 12.5C11.3335 11.6716 12.0051 11 12.8335 11H15.8335C16.6619 11 17.3335 11.6716 17.3335 12.5V15.5C17.3335 16.3284 16.6619 17 15.8335 17H12.8335C12.0051 17 11.3335 16.3284 11.3335 15.5V12.5Z" fill="#606068"/>
<path d="M12.3335 5C12.3335 4.44772 12.7812 4 13.3335 4H15.3335C15.8858 4 16.3335 4.44772 16.3335 5V7C16.3335 7.55228 15.8858 8 15.3335 8H13.3335C12.7812 8 12.3335 7.55228 12.3335 7V5Z" fill="#606068"/>
<path d="M4.3335 13C4.3335 12.4477 4.78121 12 5.3335 12H7.3335C7.88578 12 8.3335 12.4477 8.3335 13V15C8.3335 15.5523 7.88578 16 7.3335 16H5.3335C4.78121 16 4.3335 15.5523 4.3335 15V13Z" fill="#606068"/>
</svg>
