<svg width="20" height="20" viewBox="0 0 20 20" fill="none" xmlns="http://www.w3.org/2000/svg">
<path fill-rule="evenodd" clip-rule="evenodd" d="M13.7637 1.50024C14.3208 1.50026 14.8668 1.65537 15.3406 1.9482C15.8145 2.24103 16.1975 2.66001 16.4467 3.15821L17.8326 5.92915C18.0766 5.82915 18.3166 5.72116 18.5526 5.60516C18.79 5.48661 19.0647 5.46721 19.3164 5.55122C19.5681 5.63524 19.776 5.81579 19.8946 6.05315C20.0131 6.29051 20.0325 6.56525 19.9485 6.81692C19.8645 7.06859 19.684 7.27657 19.4466 7.39512C19.2062 7.50212 18.9646 7.60612 18.7216 7.70711L19.6826 9.63007C19.8912 10.047 19.9997 10.5068 19.9996 10.973V13.5C20.0002 13.9222 19.9114 14.3397 19.7391 14.7251C19.5667 15.1105 19.3147 15.455 18.9996 15.7359V16.9999C18.9996 17.3977 18.8416 17.7793 18.5603 18.0606C18.279 18.3419 17.8975 18.4999 17.4996 18.4999C17.1018 18.4999 16.7203 18.3419 16.439 18.0606C16.1577 17.7793 15.9997 17.3977 15.9997 16.9999V16.4999H3.99992V16.9999C3.99992 17.3977 3.84188 17.7793 3.56059 18.0606C3.27929 18.3419 2.89776 18.4999 2.49995 18.4999C2.10213 18.4999 1.72061 18.3419 1.43931 18.0606C1.15801 17.7793 0.999979 17.3977 0.999979 16.9999V15.7359C0.385992 15.186 0 14.388 0 13.5V10.972C0.000186875 10.5065 0.108714 10.0474 0.316993 9.63107L1.26997 7.72311C1.02898 7.62112 0.789984 7.51312 0.554989 7.39612C0.318825 7.27603 0.139307 7.06795 0.0551315 6.81673C-0.0290437 6.56552 -0.0111348 6.29128 0.104998 6.05315C0.163655 5.93558 0.244907 5.83072 0.344109 5.74457C0.443311 5.65842 0.558519 5.59266 0.683147 5.55106C0.807775 5.50945 0.939381 5.49282 1.07044 5.5021C1.2015 5.51138 1.32945 5.5464 1.44697 5.60516C1.68296 5.72216 1.92396 5.82915 2.16695 5.92915L3.55293 3.15921C3.80197 2.66083 4.18488 2.24164 4.65875 1.94863C5.13262 1.65562 5.67873 1.50036 6.23587 1.50024H13.7637ZM5.49989 10.5001C5.10207 10.5001 4.72055 10.6581 4.43925 10.9394C4.15795 11.2207 3.99992 11.6022 3.99992 12C3.99992 12.3978 4.15795 12.7794 4.43925 13.0607C4.72055 13.342 5.10207 13.5 5.49989 13.5C5.8977 13.5 6.27922 13.342 6.56052 13.0607C6.84182 12.7794 6.99985 12.3978 6.99985 12C6.99985 11.6022 6.84182 11.2207 6.56052 10.9394C6.27922 10.6581 5.8977 10.5001 5.49989 10.5001ZM14.4997 10.5001C14.1019 10.5001 13.7204 10.6581 13.4391 10.9394C13.1578 11.2207 12.9997 11.6022 12.9997 12C12.9997 12.3978 13.1578 12.7794 13.4391 13.0607C13.7204 13.342 14.1019 13.5 14.4997 13.5C14.8975 13.5 15.279 13.342 15.5603 13.0607C15.8416 12.7794 15.9997 12.3978 15.9997 12C15.9997 11.6022 15.8416 11.2207 15.5603 10.9394C15.279 10.6581 14.8975 10.5001 14.4997 10.5001ZM13.7637 3.5002H6.23587C6.07128 3.50018 5.90923 3.54078 5.7641 3.61841C5.61896 3.69603 5.49523 3.80828 5.40389 3.94519L5.34189 4.05319L4.07192 6.59114C5.61988 7.05513 7.70584 7.50012 9.99979 7.50012C12.1417 7.50012 14.1007 7.11213 15.6097 6.68314L15.9267 6.59114L14.6577 4.05319C14.5841 3.90601 14.4753 3.77926 14.341 3.6842C14.2067 3.58913 14.051 3.52868 13.8877 3.5082L13.7647 3.5002H13.7637Z" fill="#D9602B"/>
</svg>
