<svg width="21" height="20" viewBox="0 0 21 20" fill="none" xmlns="http://www.w3.org/2000/svg">
<path fill-rule="evenodd" clip-rule="evenodd" d="M6.75001 0.600633C6.91218 0.235248 7.27356 0 7.67398 0H15.6594C16.4102 0 16.8997 0.790833 16.5633 1.46354L14.292 6.00633H17.6535C18.5544 6.00633 19.0049 7.09547 18.3683 7.73214L6.40265 19.6977C5.64785 20.4525 4.39053 19.6757 4.72888 18.6637L7.27957 11.0116H3.67777C3.50934 11.0116 3.34358 10.9695 3.19554 10.8892C3.04751 10.8088 2.92189 10.6928 2.83009 10.5516C2.7383 10.4103 2.68324 10.2484 2.66992 10.0805C2.65659 9.91261 2.68543 9.74403 2.7538 9.5901L6.75001 0.600633Z" fill="#D9AC22"/>
</svg>
