<svg width="20" height="20" viewBox="0 0 20 20" fill="none" xmlns="http://www.w3.org/2000/svg">
<g clip-path="url(#clip0_4466_9090)">
<path d="M19.4112 3.70188C18.1991 3.19344 16.9859 3 15.7734 3C11.9244 2.99969 8.07562 4.94812 4.22656 4.94812C3.26125 4.94812 2.29656 4.82563 1.33125 4.51938C1.22281 4.485 1.11406 4.46875 1.00781 4.46875C0.47 4.46875 0 4.885 0 5.46281V15.3772C0 15.7719 0.225938 16.1459 0.58875 16.2978C1.80094 16.8066 3.01406 17 4.22656 17C8.07562 17 11.9247 15.0516 15.7738 15.0516C16.7391 15.0516 17.7037 15.1741 18.6691 15.4803C18.7775 15.5147 18.8862 15.5309 18.9925 15.5309C19.5303 15.5309 20.0003 15.1147 20.0003 14.5369V4.62281C20 4.22781 19.7741 3.85406 19.4112 3.70188ZM1.5 6.13188C2.12875 6.28938 2.785 6.36844 3.46 6.41094C3.27625 7.32937 2.46875 8.02156 1.5 8.02156V6.13188ZM1.5 15.0381V13.545C2.57406 13.545 3.44313 14.3972 3.49094 15.4637C2.78688 15.4072 2.12875 15.2666 1.5 15.0381ZM10 13C8.61906 13 7.5 11.6566 7.5 10C7.5 8.34312 8.61938 7 10 7C11.3806 7 12.5 8.34312 12.5 10C12.5 11.6572 11.3803 13 10 13ZM18.5 13.8681C17.9525 13.7309 17.3841 13.6541 16.8025 13.6044C16.9859 12.7894 17.6619 12.1706 18.5 12.0644V13.8681ZM18.5 6.48969C17.5347 6.3675 16.7856 5.56156 16.7559 4.56625C17.3666 4.63406 17.9463 4.76094 18.5 4.96187V6.48969Z" fill="#66BB6A"/>
</g>
<defs>
<clipPath id="clip0_4466_9090">
<rect width="20" height="20" fill="white"/>
</clipPath>
</defs>
</svg>
