<svg width="17" height="17" viewBox="0 0 17 17" fill="none" xmlns="http://www.w3.org/2000/svg">
<g clip-path="url(#clip0_4110_8187)">
<path d="M13.0998 13.3047V15.5605L11.9279 15.1211L10.7561 15.5605L9.58415 15.1211L8.41225 15.5605L7.24036 15.1211L6.06846 15.5605L4.89656 15.1211L3.72466 15.5605V2.55273" stroke="#71717A" stroke-width="0.75" stroke-linecap="round" stroke-linejoin="round"/>
<path d="M2.61136 1.43945H11.9572C12.5866 1.43945 13.0998 1.95273 13.0998 2.58203V6.71289" stroke="#71717A" stroke-width="0.75" stroke-linecap="round" stroke-linejoin="round"/>
<path d="M2.58206 1.43945C3.21049 1.43945 3.72466 1.95361 3.72466 2.58203V6.00977H1.43946V2.58203C1.43946 1.95361 1.95363 1.43945 2.58206 1.43945Z" stroke="#71717A" stroke-width="0.75" stroke-linecap="round" stroke-linejoin="round"/>
<path d="M5.48251 4.95508H9.0275" stroke="#71717A" stroke-width="0.75" stroke-linecap="round" stroke-linejoin="round"/>
<path d="M10.7853 4.95508H11.342" stroke="#71717A" stroke-width="0.75" stroke-linecap="round" stroke-linejoin="round"/>
<path d="M5.48251 6.71289H9.0275" stroke="#71717A" stroke-width="0.75" stroke-linecap="round" stroke-linejoin="round"/>
<path d="M5.48251 8.4707H9.0275" stroke="#71717A" stroke-width="0.75" stroke-linecap="round" stroke-linejoin="round"/>
<path d="M5.48251 10.2285H8.73453" stroke="#71717A" stroke-width="0.75" stroke-linecap="round" stroke-linejoin="round"/>
<path d="M5.48251 3.19727H9.0275" stroke="#71717A" stroke-width="0.75" stroke-linecap="round" stroke-linejoin="round"/>
<path d="M10.7853 3.19727H11.342" stroke="#71717A" stroke-width="0.75" stroke-linecap="round" stroke-linejoin="round"/>
<path d="M5.48251 11.9863H9.0275" stroke="#71717A" stroke-width="0.75" stroke-linecap="round" stroke-linejoin="round"/>
<path d="M12.2063 13.3633C14.0589 13.3633 15.5608 11.8614 15.5608 10.0088C15.5608 8.15615 14.0589 6.6543 12.2063 6.6543C10.3536 6.6543 8.85172 8.15615 8.85172 10.0088C8.85172 11.8614 10.3536 13.3633 12.2063 13.3633Z" stroke="#71717A" stroke-width="0.75" stroke-linecap="round" stroke-linejoin="round"/>
<path d="M12.7046 8.64233H12.172C11.8216 8.64233 11.5359 8.9271 11.5359 9.28042C11.5359 9.52739 11.6666 9.73892 11.8875 9.84907L12.5672 10.1889" stroke="#71717A" stroke-width="0.75" stroke-linecap="round" stroke-linejoin="round"/>
<path d="M11.7079 11.3748H12.2406C12.5909 11.3748 12.8766 11.0901 12.8766 10.7367C12.8766 10.4898 12.7459 10.2782 12.525 10.1681L11.8453 9.82825" stroke="#71717A" stroke-width="0.75" stroke-linecap="round" stroke-linejoin="round"/>
<path d="M12.2063 8.64263V8.2644" stroke="#71717A" stroke-width="0.75" stroke-linecap="round" stroke-linejoin="round"/>
<path d="M12.2063 11.7531V11.3749" stroke="#71717A" stroke-width="0.75" stroke-linecap="round" stroke-linejoin="round"/>
</g>
<defs>
<clipPath id="clip0_4110_8187">
<rect width="15" height="15" fill="white" transform="translate(1 1)"/>
</clipPath>
</defs>
</svg>
