<svg width="17" height="17" viewBox="0 0 17 17" fill="none" xmlns="http://www.w3.org/2000/svg">
<g clip-path="url(#clip0_4142_14220)">
<path d="M2.93359 13.4909V14.0225C2.93359 14.9933 3.7206 15.7803 4.69141 15.7803H12.3086C13.2794 15.7803 14.0664 14.9933 14.0664 14.0225V2.97754C14.0664 2.00673 13.2794 1.21973 12.3086 1.21973H7.03516" stroke="#71717A" stroke-width="0.7" stroke-miterlimit="10" stroke-linecap="round" stroke-linejoin="round"/>
<path d="M2.93359 5.20996V12.6119" stroke="#71717A" stroke-width="0.7" stroke-miterlimit="10" stroke-linecap="round" stroke-linejoin="round"/>
<path d="M4.12331 4.09082H4.57422C5.25379 4.09082 5.80469 3.53992 5.80469 2.86035V2.4502C5.80469 1.77062 6.35559 1.21973 7.03516 1.21973H6.21484C4.40266 1.21973 2.93359 2.68879 2.93359 4.50098V5.32026C2.93359 4.65435 3.46267 4.11235 4.12331 4.09082Z" stroke="#71717A" stroke-width="0.7" stroke-miterlimit="10" stroke-linecap="round" stroke-linejoin="round"/>
<path d="M6.42839 5.90698V7.02873C6.42839 7.35234 6.69071 7.61467 7.01433 7.61467H9.98565C10.3093 7.61467 10.5716 7.35234 10.5716 7.02873V5.90698" stroke="#71717A" stroke-width="0.7" stroke-miterlimit="10" stroke-linecap="round" stroke-linejoin="round"/>
<path d="M10.1266 5.43274L10.5716 5.87779C10.8004 6.10663 11.1714 6.10663 11.4002 5.87779C11.6291 5.64895 11.6291 5.27797 11.4002 5.04916L8.91432 2.56323C8.68551 2.33439 8.31449 2.33439 8.08568 2.56323L5.59976 5.04916C5.37092 5.27797 5.37092 5.64898 5.59976 5.87779C5.82856 6.10663 6.19958 6.10663 6.42839 5.87779L8.5 3.80618L9.50506 4.81124" stroke="#71717A" stroke-width="0.7" stroke-miterlimit="10" stroke-linecap="round" stroke-linejoin="round"/>
<path d="M7.62109 7.58545V6.00342C7.62109 5.84161 7.75226 5.71045 7.91406 5.71045H9.08594C9.24774 5.71045 9.37891 5.84161 9.37891 6.00342V7.58545" stroke="#71717A" stroke-width="0.7" stroke-miterlimit="10" stroke-linecap="round" stroke-linejoin="round"/>
<path d="M12.7407 8.66526C12.5119 8.43645 12.1409 8.43645 11.9121 8.66526L11.0834 9.49389L10.8763 9.28673C10.6474 9.0579 10.2764 9.0579 10.0476 9.28673C9.81883 9.51557 9.81883 9.88656 10.0476 10.1154L10.6691 10.7368C10.8979 10.9656 11.2689 10.9656 11.4977 10.7368L11.4978 10.7368L12.7407 9.49386C12.9695 9.26508 12.9695 8.89407 12.7407 8.66526Z" stroke="#71717A" stroke-width="0.7" stroke-miterlimit="10" stroke-linecap="round" stroke-linejoin="round"/>
<path d="M4.77722 9.70105L4.57006 9.49389C4.34122 9.26505 4.34122 8.89407 4.57006 8.66526C4.79887 8.43645 5.16988 8.43645 5.39869 8.66526L5.60585 8.87242L5.81301 8.66526C6.04182 8.43645 6.41283 8.43645 6.64164 8.66526C6.87045 8.8941 6.87045 9.26508 6.64164 9.49389L6.43448 9.70105L6.64164 9.90821C6.87045 10.137 6.87045 10.508 6.64164 10.7368C6.4128 10.9656 6.04182 10.9656 5.81301 10.7368L5.60585 10.5297L5.39869 10.7368C5.16988 10.9656 4.79887 10.9656 4.57006 10.7368C4.34122 10.508 4.34122 10.137 4.57006 9.90821L4.77722 9.70105Z" stroke="#71717A" stroke-width="0.7" stroke-miterlimit="10" stroke-linecap="round" stroke-linejoin="round"/>
<path d="M8.5 8.78662V14.0224" stroke="#71717A" stroke-width="0.7" stroke-miterlimit="10" stroke-linecap="round" stroke-linejoin="round"/>
<path d="M4.39844 13.0515H6.81326" stroke="#71717A" stroke-width="0.7" stroke-miterlimit="10" stroke-linecap="round" stroke-linejoin="round"/>
<path d="M4.39844 14.0225H6.81326" stroke="#71717A" stroke-width="0.7" stroke-miterlimit="10" stroke-linecap="round" stroke-linejoin="round"/>
<path d="M12.6016 13.0515H10.1867" stroke="#71717A" stroke-width="0.7" stroke-miterlimit="10" stroke-linecap="round" stroke-linejoin="round"/>
<path d="M12.6016 14.0225H10.1867" stroke="#71717A" stroke-width="0.7" stroke-miterlimit="10" stroke-linecap="round" stroke-linejoin="round"/>
</g>
<defs>
<clipPath id="clip0_4142_14220">
<rect width="15" height="15" fill="white" transform="translate(1 1)"/>
</clipPath>
</defs>
</svg>
