<svg width="17" height="17" viewBox="0 0 17 17" fill="none" xmlns="http://www.w3.org/2000/svg">
<path d="M2.604 2.3418H5.11475" stroke="#71717A" stroke-linecap="round" stroke-linejoin="round"/>
<path d="M2.99248 5.97698V2.43909M4.72627 2.43909V4.49983" stroke="#71717A" stroke-linecap="round" stroke-linejoin="round"/>
<path d="M1.74707 15.707H15.2529M14.6523 15.5605V8.71211H15.707V7.42334L8.5 1.29297L1.29297 7.42363V8.7124H2.34766V15.5608" stroke="#71717A" stroke-linecap="round" stroke-linejoin="round"/>
<path d="M8.5 14.6327C8.5 13.29 9.55469 12.1914 10.8438 12.1914C12.1328 12.1914 13.1875 13.29 13.1875 14.6327V15.5605M8.5 14.6327C8.5 13.29 7.44531 12.1914 6.15625 12.1914C4.86719 12.1914 3.8125 13.29 3.8125 14.6327V15.5605M8.5 14.6327V15.5582" stroke="#71717A" stroke-linecap="round" stroke-linejoin="round"/>
<path d="M6.09795 12.1902C6.8259 12.1902 7.41602 11.6001 7.41602 10.8721C7.41602 10.1442 6.8259 9.55408 6.09795 9.55408C5.37 9.55408 4.77988 10.1442 4.77988 10.8721C4.77988 11.6001 5.37 12.1902 6.09795 12.1902Z" stroke="#71717A" stroke-linecap="round" stroke-linejoin="round"/>
<path d="M10.9023 12.1911C11.6303 12.1911 12.2204 11.6009 12.2204 10.873C12.2204 10.145 11.6303 9.55493 10.9023 9.55493C10.1744 9.55493 9.58428 10.145 9.58428 10.873C9.58428 11.6009 10.1744 12.1911 10.9023 12.1911Z" stroke="#71717A" stroke-linecap="round" stroke-linejoin="round"/>
<path d="M9.03789 4.80479C9.27871 4.88213 9.49668 5.01016 9.67978 5.17598L10.1641 4.9665L10.6413 5.79297L10.2183 6.10732C10.244 6.22686 10.2575 6.35107 10.2575 6.47822C10.2575 6.60537 10.2437 6.72959 10.2183 6.84912L10.6413 7.16348L10.1641 7.98994L9.67978 7.78047C9.49668 7.94629 9.27871 8.07432 9.03789 8.15166L8.97695 8.6752H8.02246L7.96152 8.15166C7.7207 8.07432 7.50273 7.94629 7.31963 7.78047L6.83535 7.98994L6.3581 7.16348L6.78115 6.84912C6.75537 6.72959 6.74189 6.60537 6.74189 6.47822C6.74189 6.35107 6.75566 6.22686 6.78115 6.10732L6.3581 5.79297L6.83535 4.9665L7.31963 5.17598C7.50273 5.01016 7.721 4.88213 7.96152 4.80479L8.02246 4.28125H8.97695L9.03789 4.80479Z" stroke="#71717A" stroke-width="0.75" stroke-linecap="round" stroke-linejoin="round"/>
<path d="M8.5 7.06384C8.8236 7.06384 9.08594 6.80151 9.08594 6.47791C9.08594 6.1543 8.8236 5.89197 8.5 5.89197C8.1764 5.89197 7.91406 6.1543 7.91406 6.47791C7.91406 6.80151 8.1764 7.06384 8.5 7.06384Z" stroke="#71717A" stroke-width="0.75" stroke-linecap="round" stroke-linejoin="round"/>
</svg>
