<svg width="17" height="17" viewBox="0 0 17 17" fill="none" xmlns="http://www.w3.org/2000/svg">
<g clip-path="url(#clip0_1529_9168)">
<path d="M2.125 4.95841C2.125 5.33414 2.27426 5.69447 2.53993 5.96015C2.80561 6.22583 3.16594 6.37508 3.54167 6.37508C3.91739 6.37508 4.27772 6.22583 4.5434 5.96015C4.80908 5.69447 4.95833 5.33414 4.95833 4.95841C4.95833 4.58269 4.80908 4.22236 4.5434 3.95668C4.27772 3.691 3.91739 3.54175 3.54167 3.54175C3.16594 3.54175 2.80561 3.691 2.53993 3.95668C2.27426 4.22236 2.125 4.58269 2.125 4.95841Z" stroke="#3E3E43" stroke-width="1.5" stroke-linecap="round" stroke-linejoin="round"/>
<path d="M9.91667 10.6249C9.91667 11.0006 10.0659 11.361 10.3316 11.6267C10.5973 11.8923 10.9576 12.0416 11.3333 12.0416C11.7091 12.0416 12.0694 11.8923 12.3351 11.6267C12.6007 11.361 12.75 11.0006 12.75 10.6249C12.75 10.2492 12.6007 9.88886 12.3351 9.62318C12.0694 9.35751 11.7091 9.20825 11.3333 9.20825C10.9576 9.20825 10.5973 9.35751 10.3316 9.62318C10.0659 9.88886 9.91667 10.2492 9.91667 10.6249Z" stroke="#3E3E43" stroke-width="1.5" stroke-linecap="round" stroke-linejoin="round"/>
<path d="M10.625 4.25C10.625 4.81358 10.8489 5.35409 11.2474 5.7526C11.6459 6.15112 12.1864 6.375 12.75 6.375C13.3136 6.375 13.8541 6.15112 14.2526 5.7526C14.6511 5.35409 14.875 4.81358 14.875 4.25C14.875 3.68641 14.6511 3.14591 14.2526 2.7474C13.8541 2.34888 13.3136 2.125 12.75 2.125C12.1864 2.125 11.6459 2.34888 11.2474 2.7474C10.8489 3.14591 10.625 3.68641 10.625 4.25Z" stroke="#3E3E43" stroke-width="1.5" stroke-linecap="round" stroke-linejoin="round"/>
<path d="M2.125 12.75C2.125 13.3136 2.34888 13.8541 2.7474 14.2526C3.14591 14.6511 3.68641 14.875 4.25 14.875C4.81358 14.875 5.35409 14.6511 5.7526 14.2526C6.15112 13.8541 6.375 13.3136 6.375 12.75C6.375 12.1864 6.15112 11.6459 5.7526 11.2474C5.35409 10.8489 4.81358 10.625 4.25 10.625C3.68641 10.625 3.14591 10.8489 2.7474 11.2474C2.34888 11.6459 2.125 12.1864 2.125 12.75Z" stroke="#3E3E43" stroke-width="1.5" stroke-linecap="round" stroke-linejoin="round"/>
<path d="M6.375 12.0417L9.91667 10.9792" stroke="#3E3E43" stroke-width="1.5" stroke-linecap="round" stroke-linejoin="round"/>
<path d="M4.60417 6.02075L10.1363 9.8245" stroke="#3E3E43" stroke-width="1.5" stroke-linecap="round" stroke-linejoin="round"/>
<path d="M4.95833 4.95833L10.625 4.25" stroke="#3E3E43" stroke-width="1.5" stroke-linecap="round" stroke-linejoin="round"/>
</g>
<defs>
<clipPath id="clip0_1529_9168">
<rect width="17" height="17" fill="white"/>
</clipPath>
</defs>
</svg>
