<svg width="17" height="17" viewBox="0 0 17 17" fill="none" xmlns="http://www.w3.org/2000/svg">
<path d="M4.198 9.31173C4.198 7.08848 6.52572 5.88941 8.49995 5.88941C10.8759 5.88941 12.8019 7.4021 12.8019 9.26813V9.88044C12.8019 10.3132 12.4479 10.6672 12.0151 10.6672H5.60299" stroke="#71717A" stroke-miterlimit="22.926" stroke-linecap="round" stroke-linejoin="round"/>
<path d="M8.50002 1.29292C9.52942 1.29292 10.3717 2.13512 10.3717 3.16456V4.01765C10.3717 5.04708 9.52945 5.88928 8.50005 5.88928C7.47064 5.88928 6.62842 5.04708 6.62842 4.01765V3.16456C6.62842 2.13512 7.47062 1.29292 8.50002 1.29292Z" stroke="#71717A" stroke-miterlimit="22.926" stroke-linecap="round" stroke-linejoin="round"/>
<path d="M8.49995 14V9.30966M4.198 14V12.2596H12.8019V14" stroke="#71717A" stroke-miterlimit="22.926" stroke-linecap="round" stroke-linejoin="round"/>
<path d="M8.49999 9.30969C8.97009 9.30969 9.35353 8.92628 9.35353 8.45619C9.35353 7.98609 8.97009 7.60268 8.49999 7.60268C8.02989 7.60268 7.64648 7.98609 7.64648 8.45619C7.64648 8.92628 8.02989 9.30969 8.49999 9.30969Z" stroke="#71717A" stroke-miterlimit="22.926" stroke-linecap="round" stroke-linejoin="round"/>
<path d="M4.19802 15.707C4.66812 15.707 5.05152 15.3236 5.05152 14.8535C5.05152 14.3834 4.66812 14 4.19802 14C3.72792 14 3.34448 14.3834 3.34448 14.8535C3.34448 15.3236 3.72792 15.707 4.19802 15.707Z" stroke="#71717A" stroke-miterlimit="22.926" stroke-linecap="round" stroke-linejoin="round"/>
<path d="M8.49999 15.707C8.97009 15.707 9.35353 15.3236 9.35353 14.8535C9.35353 14.3834 8.97009 14 8.49999 14C8.02989 14 7.64648 14.3834 7.64648 14.8535C7.64648 15.3236 8.02989 15.707 8.49999 15.707Z" stroke="#71717A" stroke-miterlimit="22.926" stroke-linecap="round" stroke-linejoin="round"/>
<path d="M12.802 15.707C13.2721 15.707 13.6555 15.3236 13.6555 14.8535C13.6555 14.3834 13.2721 14 12.802 14C12.3319 14 11.9485 14.3834 11.9485 14.8535C11.9485 15.3236 12.3319 15.707 12.802 15.707Z" stroke="#71717A" stroke-miterlimit="22.926" stroke-linecap="round" stroke-linejoin="round"/>
<path fill-rule="evenodd" clip-rule="evenodd" d="M4.4502 10.7493C4.61156 10.7493 4.74316 10.6176 4.74316 10.4563C4.74316 10.2949 4.61156 10.1633 4.4502 10.1633C4.28883 10.1633 4.15723 10.2949 4.15723 10.4563C4.15723 10.6176 4.28883 10.7493 4.4502 10.7493Z" fill="#71717A"/>
</svg>
