<svg width="17" height="17" viewBox="0 0 17 17" fill="none" xmlns="http://www.w3.org/2000/svg">
<path d="M12.8945 4.77746C12.8945 4.62768 12.8327 4.48383 12.7229 4.37785L10.7225 2.4482C10.6126 2.34222 10.4635 2.28259 10.3082 2.28259H10.2578V4.26085C10.2578 4.57314 10.52 4.82607 10.8438 4.82607H12.8945V4.77746Z" fill="#71717A"/>
<path d="M4.10547 7.19998V2.84781C4.10547 2.53553 4.36768 2.28259 4.69141 2.28259H10.3082C10.4635 2.28259 10.6126 2.34222 10.7225 2.4482L12.7229 4.37785C12.8327 4.48383 12.8945 4.62768 12.8945 4.77746V9.00868" stroke="#71717A" stroke-width="0.95" stroke-linecap="round" stroke-linejoin="round"/>
<path d="M4.10547 9.57385V13.0217C4.10547 13.334 4.36768 13.5869 4.69141 13.5869H10.375" stroke="#71717A" stroke-width="0.95" stroke-linecap="round" stroke-linejoin="round"/>
<path d="M10.2578 5.67395H5.57031" stroke="#71717A" stroke-width="0.95" stroke-linecap="round" stroke-linejoin="round"/>
<path d="M11.4297 7.08704H5.57031" stroke="#71717A" stroke-width="0.95" stroke-linecap="round" stroke-linejoin="round"/>
<path d="M11.4297 8.5H7.03516" stroke="#71717A" stroke-width="0.95" stroke-linecap="round" stroke-linejoin="round"/>
<path d="M12.7773 14.7175C14.3954 14.7175 15.707 13.4522 15.707 11.8914C15.707 10.3306 14.3954 9.06531 12.7773 9.06531C11.1593 9.06531 9.84766 10.3306 9.84766 11.8914C9.84766 13.4522 11.1593 14.7175 12.7773 14.7175Z" stroke="#71717A" stroke-width="0.95" stroke-linecap="round" stroke-linejoin="round"/>
<path d="M12.7773 12.3152C13.0199 12.3152 13.2168 12.1253 13.2168 11.8913V10.4782C13.2168 10.2442 13.0199 10.0543 12.7773 10.0543C12.5348 10.0543 12.3379 10.2442 12.3379 10.4782V11.8913C12.3379 12.1253 12.5348 12.3152 12.7773 12.3152Z" fill="#71717A"/>
<path d="M12.7773 13.7282C13.02 13.7282 13.2168 13.5384 13.2168 13.3043C13.2168 13.0702 13.02 12.8804 12.7773 12.8804C12.5346 12.8804 12.3379 13.0702 12.3379 13.3043C12.3379 13.5384 12.5346 13.7282 12.7773 13.7282Z" fill="#71717A"/>
<path d="M1.53552 7.03835L5.39451 10.7609L7.15232 11.3261L6.56638 9.63044L2.7074 5.90792C2.38367 5.59564 1.85925 5.59564 1.53552 5.90792C1.21179 6.2202 1.21179 6.72635 1.53552 7.03835Z" stroke="#71717A" stroke-width="0.95" stroke-linecap="round" stroke-linejoin="round"/>
<path d="M3.28516 6.57825L2.23047 7.59564" stroke="#71717A" stroke-width="0.95" stroke-linecap="round" stroke-linejoin="round"/>
</svg>
