<svg width="17" height="17" viewBox="0 0 17 17" fill="none" xmlns="http://www.w3.org/2000/svg">
<path d="M12.4841 12.1102V13.6135" stroke="#71717A" stroke-miterlimit="10" stroke-linecap="round" stroke-linejoin="round"/>
<path d="M12.4841 10.5884V10.5903" stroke="#71717A" stroke-miterlimit="10" stroke-linecap="round" stroke-linejoin="round"/>
<path d="M12.4842 15.3262C14.2593 15.3262 15.7071 13.8778 15.7071 12.1011C15.7071 10.3253 14.2593 8.87685 12.4842 8.87685C10.7083 8.87685 9.2605 10.3253 9.2605 12.1011C9.2605 13.8778 10.7083 15.3262 12.4842 15.3262Z" stroke="#71717A" stroke-miterlimit="10" stroke-linecap="round" stroke-linejoin="round"/>
<path d="M9.84277 2.96523H12.8123C13.2068 2.96523 13.5308 3.2885 13.5308 3.68403C13.5308 4.07875 13.2068 4.40283 12.8123 4.40283H9.84277C9.44738 4.40283 9.12427 4.07875 9.12427 3.68403C9.12427 3.2885 9.44738 2.96523 9.84277 2.96523Z" stroke="#71717A" stroke-miterlimit="10" stroke-linecap="round" stroke-linejoin="round"/>
<path d="M1.29297 5.69336H15.0533" stroke="#71717A" stroke-miterlimit="10" stroke-linecap="round" stroke-linejoin="round"/>
<path d="M6.59167 7.45251H13.0017M3.34387 7.45251H5.12641" stroke="#71717A" stroke-miterlimit="10" stroke-linecap="round" stroke-linejoin="round"/>
<path d="M8.23964 9.10376H9.19241M3.34387 9.10376H6.77439" stroke="#71717A" stroke-miterlimit="10" stroke-linecap="round" stroke-linejoin="round"/>
<path d="M4.00413 10.7549H3.34375M7.72706 10.7549H5.46938" stroke="#71717A" stroke-miterlimit="10" stroke-linecap="round" stroke-linejoin="round"/>
<path d="M12.5473 1.67381H14.0906C14.6197 1.67381 15.0533 2.10676 15.0533 2.63695V10.1541M9.92081 14.0564H8.17313H2.25566C1.72571 14.0564 1.29297 13.6234 1.29297 13.0941V2.63695C1.29297 2.10676 1.72571 1.67381 2.25566 1.67381H9.91583M11.2324 1.67381H11.2316" stroke="#71717A" stroke-miterlimit="10" stroke-linecap="round" stroke-linejoin="round"/>
</svg>
