<svg width="16" height="16" viewBox="0 0 16 16" fill="none" xmlns="http://www.w3.org/2000/svg">
<g clip-path="url(#clip0_4551_44761)">
<path d="M1.3335 10.666C1.3335 11.1964 1.54421 11.7052 1.91928 12.0802C2.29436 12.4553 2.80306 12.666 3.3335 12.666C3.86393 12.666 4.37264 12.4553 4.74771 12.0802C5.12278 11.7052 5.3335 11.1964 5.3335 10.666C5.3335 10.1356 5.12278 9.62687 4.74771 9.2518C4.37264 8.87673 3.86393 8.66602 3.3335 8.66602C2.80306 8.66602 2.29436 8.87673 1.91928 9.2518C1.54421 9.62687 1.3335 10.1356 1.3335 10.666Z" stroke="#7B74C2" stroke-width="1.5" stroke-linecap="round" stroke-linejoin="round"/>
<path d="M10.6665 10.666C10.6665 11.1964 10.8772 11.7052 11.2523 12.0802C11.6274 12.4553 12.1361 12.666 12.6665 12.666C13.1969 12.666 13.7056 12.4553 14.0807 12.0802C14.4558 11.7052 14.6665 11.1964 14.6665 10.666C14.6665 10.1356 14.4558 9.62687 14.0807 9.2518C13.7056 8.87673 13.1969 8.66602 12.6665 8.66602C12.1361 8.66602 11.6274 8.87673 11.2523 9.2518C10.8772 9.62687 10.6665 10.1356 10.6665 10.666Z" stroke="#7B74C2" stroke-width="1.5" stroke-linecap="round" stroke-linejoin="round"/>
<path d="M4 6.66602H11L8.33333 9.33268H5L7.66667 6.66602" stroke="#7B74C2" stroke-width="1.5" stroke-linecap="round" stroke-linejoin="round"/>
<path d="M8.6665 4H9.99984L10.9998 6L12.3332 8.66667" stroke="#7B74C2" stroke-width="1.5" stroke-linecap="round" stroke-linejoin="round"/>
</g>
<defs>
<clipPath id="clip0_4551_44761">
<rect width="16" height="16" fill="white"/>
</clipPath>
</defs>
</svg>
