<svg width="16" height="16" viewBox="0 0 16 16" fill="none" xmlns="http://www.w3.org/2000/svg">
<g clip-path="url(#clip0_4551_113114)">
<path d="M6.00016 1.33398H2.00016C1.82335 1.33398 1.65378 1.40422 1.52876 1.52925C1.40373 1.65427 1.3335 1.82384 1.3335 2.00065V6.00065C1.3335 6.17746 1.40373 6.34703 1.52876 6.47206C1.65378 6.59708 1.82335 6.66732 2.00016 6.66732H6.00016C6.17697 6.66732 6.34654 6.59708 6.47157 6.47206C6.59659 6.34703 6.66683 6.17746 6.66683 6.00065V2.00065C6.66683 1.82384 6.59659 1.65427 6.47157 1.52925C6.34654 1.40422 6.17697 1.33398 6.00016 1.33398ZM6.00016 9.33398H2.00016C1.82335 9.33398 1.65378 9.40422 1.52876 9.52925C1.40373 9.65427 1.3335 9.82384 1.3335 10.0007V14.0007C1.3335 14.1775 1.40373 14.347 1.52876 14.4721C1.65378 14.5971 1.82335 14.6673 2.00016 14.6673H6.00016C6.17697 14.6673 6.34654 14.5971 6.47157 14.4721C6.59659 14.347 6.66683 14.1775 6.66683 14.0007V10.0007C6.66683 9.82384 6.59659 9.65427 6.47157 9.52925C6.34654 9.40422 6.17697 9.33398 6.00016 9.33398ZM14.0002 1.33398H10.0002C9.82335 1.33398 9.65378 1.40422 9.52876 1.52925C9.40373 1.65427 9.3335 1.82384 9.3335 2.00065V6.00065C9.3335 6.17746 9.40373 6.34703 9.52876 6.47206C9.65378 6.59708 9.82335 6.66732 10.0002 6.66732H14.0002C14.177 6.66732 14.3465 6.59708 14.4716 6.47206C14.5966 6.34703 14.6668 6.17746 14.6668 6.00065V2.00065C14.6668 1.82384 14.5966 1.65427 14.4716 1.52925C14.3465 1.40422 14.177 1.33398 14.0002 1.33398Z" stroke="#7B74C2" stroke-width="2" stroke-linejoin="round"/>
<path d="M9.3335 9.33398H14.6668M12.0002 12.0007H14.6668M9.3335 14.6673H14.6668" stroke="#7B74C2" stroke-width="2" stroke-linecap="round" stroke-linejoin="round"/>
</g>
<defs>
<clipPath id="clip0_4551_113114">
<rect width="16" height="16" fill="white"/>
</clipPath>
</defs>
</svg>
