<svg width="20" height="20" viewBox="0 0 20 20" fill="none" xmlns="http://www.w3.org/2000/svg">
<g clip-path="url(#clip0_3726_15812)">
<path d="M9.16677 19.5833C9.16677 19.8167 8.98344 20 8.75011 20H2.91677C2.07511 20 1.27511 19.6333 0.725106 19.0083C0.166772 18.375 -0.0832277 17.525 0.0251057 16.6917C0.433439 13.6417 2.74177 11.625 4.75011 10.0083C2.74177 8.38333 0.433439 6.36667 0.0251057 3.31667C-0.0832277 2.475 0.166772 1.63333 0.725106 1C1.28344 0.366667 2.08344 0 2.91677 0H12.0751C12.9168 0 13.7168 0.366667 14.2751 1C14.8334 1.63333 15.0834 2.475 14.9751 3.31667C14.7418 5.05833 13.8918 6.61667 12.2834 8.21667C12.1251 8.375 11.8584 8.375 11.6918 8.21667C11.5251 8.05833 11.5334 7.79167 11.6918 7.625C13.1584 6.15833 13.9334 4.75833 14.1418 3.2C14.2168 2.6 14.0418 2 13.6418 1.54167C13.2418 1.09167 12.6751 0.825 12.0751 0.825H2.91677C2.31677 0.825 1.74177 1.08333 1.35011 1.54167C0.950106 2 0.766772 2.6 0.850106 3.2C1.24177 6.125 3.70011 8.09167 5.67511 9.66667C5.77511 9.75 5.83344 9.86667 5.83344 9.99167C5.83344 10.1167 5.77511 10.2417 5.67511 10.3167C3.70011 11.9 1.24177 13.8667 0.850106 16.7833C0.766772 17.3833 0.950106 17.9917 1.35011 18.4417C1.74177 18.8917 2.31677 19.15 2.91677 19.15H8.75011C8.98344 19.15 9.16677 19.3333 9.16677 19.5667V19.5833ZM20.0001 14.5833C20.0001 17.5667 17.5668 20 14.5834 20C11.6001 20 9.16677 17.5667 9.16677 14.5833C9.16677 11.6 11.6001 9.16667 14.5834 9.16667C17.5668 9.16667 20.0001 11.6 20.0001 14.5833ZM19.1668 14.5833C19.1668 12.0583 17.1084 10 14.5834 10C12.0584 10 10.0001 12.0583 10.0001 14.5833C10.0001 17.1083 12.0584 19.1667 14.5834 19.1667C17.1084 19.1667 19.1668 17.1083 19.1668 14.5833ZM16.0251 14.5083L13.4501 13.8667C13.1668 13.7833 12.9751 13.5083 12.9751 13.2C12.9751 12.8167 13.2668 12.5083 13.6251 12.5083H15.6334C15.9334 12.5083 16.1918 12.725 16.2668 13.025C16.3251 13.25 16.5501 13.3833 16.7668 13.3333C16.9918 13.2833 17.1251 13.05 17.0751 12.8333C16.9084 12.1583 16.3168 11.6833 15.6334 11.6833H15.0001V11.2667C15.0001 11.0333 14.8168 10.85 14.5834 10.85C14.3501 10.85 14.1668 11.0333 14.1668 11.2667V11.6833H13.6251C12.8084 11.6833 12.1418 12.3667 12.1418 13.2083C12.1418 13.8833 12.5834 14.4833 13.2334 14.675L15.8084 15.3167C16.0918 15.4 16.2834 15.675 16.2834 15.9833C16.2834 16.3667 15.9918 16.675 15.6334 16.675H13.5418C13.2418 16.675 12.9834 16.4667 12.9084 16.1583C12.8501 15.9333 12.6251 15.8 12.4084 15.85C12.1834 15.9083 12.0501 16.1333 12.1001 16.35C12.2668 17.025 12.8584 17.5 13.5418 17.5H14.1751V17.9167C14.1751 18.15 14.3584 18.3333 14.5918 18.3333C14.8251 18.3333 15.0084 18.15 15.0084 17.9167V17.5H15.6418C16.4584 17.5 17.1251 16.8167 17.1251 15.975C17.1251 15.3 16.6834 14.7 16.0334 14.5083H16.0251ZM12.0001 3.025C11.4918 4.875 9.65844 6.34167 8.04177 7.625C7.95844 7.68333 7.89177 7.75833 7.81677 7.825C7.65844 7.99167 7.37511 7.99167 7.21677 7.825C7.15011 7.75 7.07511 7.68333 6.99177 7.625C5.29177 6.26667 3.53344 4.85833 3.03344 3.025C2.95844 2.76667 3.16677 2.49167 3.43344 2.5H11.5834C11.8501 2.5 12.0668 2.775 11.9834 3.025H12.0001ZM11.0001 3.33333H4.04177C4.65011 4.68333 6.10844 5.85 7.52511 6.975C8.86677 5.9 10.3751 4.7 11.0001 3.325V3.33333Z" fill="#B85225"/>
</g>
<defs>
<clipPath id="clip0_3726_15812">
<rect width="20" height="20" fill="white"/>
</clipPath>
</defs>
</svg>
