<svg width="18" height="18" viewBox="0 0 18 18" fill="none" xmlns="http://www.w3.org/2000/svg">
<g clip-path="url(#clip0_4536_5619)">
<path d="M6.34082 14.8437H2.09082C1.80903 14.8437 1.53878 14.7318 1.33952 14.5326C1.14026 14.3333 1.02832 14.063 1.02832 13.7812V2.09375C1.02832 1.81196 1.14026 1.54171 1.33952 1.34245C1.53878 1.14319 1.80903 1.03125 2.09082 1.03125H12.7158C12.9976 1.03125 13.2679 1.14319 13.4671 1.34245C13.6664 1.54171 13.7783 1.81196 13.7783 2.09375V6.875M6.34082 4.21875H10.5908M4.21582 7.40625H10.5908M4.21582 10.5937H9.52832M16.5274 11.0329L11.1249 16.4375L8.46865 16.9687L8.9999 14.3125L14.4052 8.90792C14.6861 8.62698 15.0672 8.46915 15.4645 8.46915C15.8618 8.46915 16.2429 8.62698 16.5238 8.90792L16.5302 8.91358C16.6692 9.0529 16.7794 9.21824 16.8545 9.40016C16.9296 9.58208 16.9682 9.77702 16.9679 9.97384C16.9676 10.1707 16.9286 10.3655 16.853 10.5472C16.7774 10.7289 16.6668 10.894 16.5274 11.0329Z" stroke="#38673A" stroke-width="1.5" stroke-linecap="round" stroke-linejoin="round"/>
</g>
<defs>
<clipPath id="clip0_4536_5619">
<rect width="17" height="17" fill="white" transform="translate(0.5 0.5)"/>
</clipPath>
</defs>
</svg>
