<svg width="18" height="18" viewBox="0 0 18 18" fill="none" xmlns="http://www.w3.org/2000/svg">
<g clip-path="url(#clip0_3783_177226)">
<path d="M11.125 2.46208V1.20833C11.125 0.81875 10.8062 0.5 10.4167 0.5C10.0271 0.5 9.70833 0.81875 9.70833 1.20833V1.91667H8.29167V1.20833C8.29167 0.81875 7.97292 0.5 7.58333 0.5C7.19375 0.5 6.875 0.81875 6.875 1.20833V1.91667H5.45833V1.20833C5.45833 0.81875 5.13958 0.5 4.75 0.5C4.36042 0.5 4.04167 0.81875 4.04167 1.20833V1.91667H2.625V1.20833C2.625 0.81875 2.30625 0.5 1.91667 0.5C1.52708 0.5 1.20833 0.81875 1.20833 1.20833V2.46208C0.77625 2.85167 0.5 3.41833 0.5 4.04167V13.9583C0.5 15.9133 2.08667 17.5 4.04167 17.5H8.29167C10.2467 17.5 11.8333 15.9133 11.8333 13.9583V4.04167C11.8333 3.41125 11.5571 2.85167 11.125 2.46208ZM10.4167 13.9583C10.4167 15.1271 9.46042 16.0833 8.29167 16.0833H4.04167C2.87292 16.0833 1.91667 15.1271 1.91667 13.9583V4.04167C1.91667 3.65208 2.23542 3.33333 2.625 3.33333H9.70833C10.0979 3.33333 10.4167 3.65208 10.4167 4.04167V13.9583ZM9 6.16667C9 6.55625 8.68125 6.875 8.29167 6.875H4.04167C3.65208 6.875 3.33333 6.55625 3.33333 6.16667C3.33333 5.77708 3.65208 5.45833 4.04167 5.45833H8.29167C8.68125 5.45833 9 5.77708 9 6.16667ZM9 9C9 9.38958 8.68125 9.70833 8.29167 9.70833H4.04167C3.65208 9.70833 3.33333 9.38958 3.33333 9C3.33333 8.61042 3.65208 8.29167 4.04167 8.29167H8.29167C8.68125 8.29167 9 8.61042 9 9ZM6.875 11.8333C6.875 12.2229 6.55625 12.5417 6.16667 12.5417H4.04167C3.65208 12.5417 3.33333 12.2229 3.33333 11.8333C3.33333 11.4437 3.65208 11.125 4.04167 11.125H6.16667C6.55625 11.125 6.875 11.4437 6.875 11.8333ZM15.375 0.5C14.2062 0.5 13.25 1.45625 13.25 2.625V14.4967C13.25 15.2404 13.5546 15.97 14.0787 16.5012L14.8721 17.2946C15.0067 17.4292 15.1908 17.5 15.375 17.5C15.5592 17.5 15.7362 17.4292 15.8779 17.2946L16.6712 16.5012C17.2025 15.9771 17.5 15.2475 17.5 14.4967V2.625C17.5 1.45625 16.5437 0.5 15.375 0.5ZM16.0833 14.4967C16.0833 14.8721 15.9346 15.2333 15.6654 15.4954L15.375 15.7858L15.0846 15.4954C14.8225 15.2333 14.6667 14.865 14.6667 14.4967V2.625C14.6667 2.23542 14.9854 1.91667 15.375 1.91667C15.7646 1.91667 16.0833 2.23542 16.0833 2.625V14.4967Z" fill="#E07E53"/>
</g>
<defs>
<clipPath id="clip0_3783_177226">
<rect width="17" height="17" fill="white" transform="translate(0.5 0.5)"/>
</clipPath>
</defs>
</svg>
