<svg width="18" height="18" viewBox="0 0 18 18" fill="none" xmlns="http://www.w3.org/2000/svg">
<g clip-path="url(#clip0_3927_10981)">
<path d="M16.4092 6.94583L15.375 5.95417V3.33333C15.375 1.76792 14.1071 0.5 12.5417 0.5H5.45833C3.89292 0.5 2.625 1.76792 2.625 3.33333V5.95417L1.59083 6.94583C0.896667 7.61167 0.5 8.53958 0.5 9.50292V13.9583C0.5 15.9133 2.08667 17.5 4.04167 17.5H13.9583C15.9133 17.5 17.5 15.9133 17.5 13.9583V9.50292C17.5 8.53958 17.1033 7.61167 16.4092 6.94583ZM5.45833 1.91667H12.5417C13.3208 1.91667 13.9583 2.55417 13.9583 3.33333V9.17L10.5017 12.6267C9.70125 13.4271 8.29875 13.4271 7.49833 12.6267L4.04167 9.17V3.33333C4.04167 2.55417 4.67917 1.91667 5.45833 1.91667ZM16.0833 13.9583C16.0833 15.1271 15.1271 16.0833 13.9583 16.0833H4.04167C2.87292 16.0833 1.91667 15.1271 1.91667 13.9583V9.50292C1.91667 9.36833 1.93083 9.22667 1.95917 9.09208L6.49958 13.6325C7.16542 14.2983 8.05792 14.6737 9 14.6737C9.94208 14.6737 10.8346 14.3054 11.5004 13.6325L16.0408 9.09208C16.0692 9.22667 16.0833 9.36125 16.0833 9.50292V13.9583ZM5.685 7.2575C5.40167 6.98833 5.38042 6.54208 5.64958 6.25875C5.91875 5.96833 6.365 5.95417 6.64833 6.22333L7.95875 7.44167C8.15 7.63292 8.43333 7.63292 8.60333 7.45583L11.3375 4.82083C11.6208 4.55167 12.0671 4.55875 12.3362 4.84208C12.6054 5.12542 12.5983 5.57167 12.3221 5.84083L9.595 8.46875C9.24083 8.82292 8.76625 9.00708 8.29167 9.00708C7.81708 9.00708 7.33542 8.82292 6.97417 8.46167L5.685 7.2575Z" fill="#579F5A"/>
</g>
<defs>
<clipPath id="clip0_3927_10981">
<rect width="17" height="17" fill="white" transform="translate(0.5 0.5)"/>
</clipPath>
</defs>
</svg>
