<svg width="20" height="20" viewBox="0 0 20 20" fill="none" xmlns="http://www.w3.org/2000/svg">
<path d="M11.0833 17.3833L10 16.6667L7.5 18.3333L5 16.6667L2.5 18.3333V2.5H17.5V11.1167C16.975 10.9333 16.4167 10.8333 15.8333 10.8333V4.16667H4.16667V15.2167L5 14.6667L7.5 16.3333L10 14.6667L10.8667 15.2417C10.8333 15.4167 10.8333 15.6333 10.8333 15.8333C10.8333 16.375 10.9167 16.9 11.0833 17.3833ZM14.1667 5.83333V7.5H5.83333V5.83333H14.1667ZM12.5 9.16667V10.8333H5.83333V9.16667H12.5ZM15.8333 18.3333V16.6667H12.5V15H15.8333V13.3333L18.3333 15.8333L15.8333 18.3333Z" fill="#29A19C"/>
</svg>
