<svg width="20" height="20" viewBox="0 0 20 20" fill="none" xmlns="http://www.w3.org/2000/svg">
<g id="mdi:new-box">
<path id="Vector" d="M16.6667 3.33333C17.5917 3.33333 18.3334 4.07499 18.3334 4.99999V15C18.3334 15.925 17.5917 16.6667 16.6667 16.6667H3.33335C2.40835 16.6667 1.66669 15.925 1.66669 15V4.99999C1.66669 4.07499 2.40835 3.33333 3.33335 3.33333H16.6667ZM7.08335 12.5V7.49999H6.04169V10.4167L3.95835 7.49999H2.91669V12.5H3.95835V9.58333L6.08335 12.5H7.08335ZM11.25 8.54999V7.49999H7.91669V12.5H11.25V11.4583H9.16669V10.5333H11.25V9.48333H9.16669V8.54999H11.25ZM17.0834 11.6667V7.49999H16.0417V11.25H15.1084V8.33333H14.0667V11.25H13.125V7.49999H12.0834V11.6667C12.0834 11.8877 12.1712 12.0996 12.3274 12.2559C12.4837 12.4122 12.6957 12.5 12.9167 12.5H16.25C16.471 12.5 16.683 12.4122 16.8393 12.2559C16.9956 12.0996 17.0834 11.8877 17.0834 11.6667Z" fill="#2A1F9C"/>
</g>
</svg>
