<svg width="20" height="20" viewBox="0 0 20 20" fill="none" xmlns="http://www.w3.org/2000/svg">
<g id="System">
<path id="Vector" d="M17.4518 10.8479C17.628 9.3015 17.3186 7.7386 16.5667 6.37587C15.8148 5.01314 14.6576 3.91809 13.2554 3.24252C11.8533 2.56695 10.2757 2.34433 8.74139 2.60551C7.20706 2.8667 5.79199 3.59876 4.69235 4.70021C3.59271 5.80165 2.86298 7.21792 2.60431 8.75268C2.34564 10.2874 2.57086 11.8647 3.24873 13.2657C3.9266 14.6667 5.02355 15.8221 6.38751 16.5718C7.75148 17.3215 9.31488 17.6282 10.861 17.4496" stroke="#D9AC22" stroke-width="1.5" stroke-linecap="round" stroke-linejoin="round"/>
<path id="Vector_2" d="M10 5.83337V10L11.6667 11.6667" stroke="#D9AC22" stroke-width="1.5" stroke-linecap="round" stroke-linejoin="round"/>
<path id="Vector_3" d="M14.1665 14.1666V18.3333" stroke="#D9AC22" stroke-width="1.5" stroke-linecap="round" stroke-linejoin="round"/>
<path id="Vector_4" d="M17.5 14.1666V18.3333" stroke="#D9AC22" stroke-width="1.5" stroke-linecap="round" stroke-linejoin="round"/>
</g>
</svg>
