<svg width="20" height="20" viewBox="0 0 20 20" fill="none" xmlns="http://www.w3.org/2000/svg">
<path d="M10.8333 1.69165V3.37498C14.4916 3.82498 17.0833 7.14998 16.6333 10.8083C16.2499 13.8417 13.8666 16.25 10.8333 16.6083V18.275C15.4166 17.8167 18.7499 13.75 18.2916 9.16665C17.9166 5.20832 14.7749 2.08332 10.8333 1.69165ZM9.16659 1.71665C7.54159 1.87498 5.99159 2.49998 4.72492 3.54998L5.91659 4.78332C6.84992 4.03332 7.97492 3.54998 9.16659 3.38332V1.71665ZM3.54992 4.72498C2.50862 5.98983 1.8675 7.53607 1.70825 9.16665H3.37492C3.53325 7.98332 3.99992 6.85832 4.74159 5.91665L3.54992 4.72498ZM1.71659 10.8333C1.88325 12.4667 2.52492 14.0083 3.55825 15.275L4.74159 14.0833C4.00562 13.1414 3.53647 12.0188 3.38325 10.8333H1.71659ZM5.91659 15.3083L4.72492 16.45C5.98739 17.502 7.53272 18.1572 9.16659 18.3333V16.6667C7.98106 16.5134 6.85855 16.0443 5.91659 15.3083ZM10.4166 5.83332V10.2083L14.1666 12.4333L13.5416 13.4583L9.16659 10.8333V5.83332H10.4166Z" fill="#29A19C"/>
</svg>
